<svg width="119" height="56" viewBox="0 0 119 56" fill="none" xmlns="http://www.w3.org/2000/svg">
<g clip-path="url(#clip0_509_10439)">
<path d="M36.1975 40.4918C36.1975 39.3741 35.7535 38.3022 34.9631 37.5119C34.1728 36.7216 33.1009 36.2776 31.9832 36.2776H19.3609C17.1283 36.2776 14.987 35.3907 13.4083 33.8119C11.8296 32.2332 10.9427 30.092 10.9427 27.8593C10.9427 25.6267 11.8296 23.4855 13.4083 21.9067C14.987 20.328 17.1283 19.4411 19.3609 19.4411H31.9832C33.1005 19.4411 34.172 18.9974 34.9622 18.2076C35.7525 17.4179 36.1968 16.3466 36.1975 15.2294C36.1975 14.1117 35.7535 13.0398 34.9631 12.2495C34.1728 11.4591 33.1009 11.0151 31.9832 11.0151H19.3609C14.8956 11.0151 10.6132 12.789 7.45571 15.9465C4.29825 19.1039 2.52441 23.3863 2.52441 27.8517C2.52441 32.317 4.29825 36.5994 7.45571 39.7569C10.6132 42.9143 14.8956 44.6882 19.3609 44.6882H31.9832C33.0978 44.6882 34.167 44.2467 34.9568 43.4602C35.7467 42.6737 36.1927 41.6064 36.1975 40.4918Z" fill="#9E76B4"/>
<path d="M111.911 11.041C110.794 11.041 109.723 11.4847 108.933 12.2746C108.143 13.0644 107.699 14.1357 107.699 15.2527V27.8775C107.699 30.108 106.814 32.2473 105.238 33.8256C103.662 35.404 101.524 36.2924 99.2939 36.2958C97.0612 36.2958 94.92 35.4089 93.3413 33.8301C91.7625 32.2514 90.8756 30.1102 90.8756 27.8775V15.2527C90.8756 14.6994 90.7666 14.1515 90.5548 13.6404C90.343 13.1292 90.0325 12.6648 89.6411 12.2737C89.2498 11.8825 88.7852 11.5724 88.2739 11.3609C87.7626 11.1493 87.2147 11.0407 86.6614 11.041C85.5444 11.041 84.4731 11.4847 83.6833 12.2746C82.8934 13.0644 82.4497 14.1357 82.4497 15.2527V27.8775C82.4497 32.3429 84.2235 36.6253 87.381 39.7827C90.5385 42.9402 94.8209 44.7141 99.2862 44.7141C103.752 44.7141 108.034 42.9402 111.191 39.7827C114.349 36.6253 116.123 32.3429 116.123 27.8775V15.2527C116.122 14.1359 115.678 13.065 114.888 12.2753C114.099 11.4856 113.028 11.0417 111.911 11.041Z" fill="#9E76B4"/>
<path d="M69.799 40.4924C69.8522 41.5729 70.3189 42.5915 71.1024 43.3374C71.886 44.0833 72.9263 44.4993 74.0081 44.4993C75.0899 44.4993 76.1303 44.0833 76.9138 43.3374C77.6974 42.5915 78.164 41.5729 78.2173 40.4924V15.3524C78.2263 14.2308 77.7945 13.1506 77.0149 12.3442C76.2353 11.5379 75.1702 11.07 74.049 11.0413C73.1684 11.0319 72.3073 11.2996 71.5872 11.8065L63.2251 17.6738C64.1404 17.0573 65.2611 16.8244 66.3462 17.0252C67.4314 17.226 68.3945 17.8445 69.0286 18.7478C69.5266 19.4559 69.7939 20.3004 69.7939 21.1661L69.799 40.4924Z" fill="#FAAC1E"/>
<path d="M59.33 20.4038L47.0419 11.7993C46.3224 11.2913 45.4609 11.0234 44.5802 11.034C43.4592 11.0621 42.394 11.5294 41.6143 12.3353C40.8346 13.1413 40.4028 14.2213 40.4118 15.3426V40.4851C40.3838 41.0553 40.4718 41.6253 40.6707 42.1604C40.8695 42.6955 41.175 43.1847 41.5687 43.5981C41.9623 44.0116 42.4358 44.3408 42.9605 44.5658C43.4852 44.7907 44.0501 44.9067 44.621 44.9067C45.1918 44.9067 45.7568 44.7907 46.2815 44.5658C46.8062 44.3408 47.2797 44.0116 47.6733 43.5981C48.0669 43.1847 48.3724 42.6955 48.5713 42.1604C48.7702 41.6253 48.8582 41.0553 48.8301 40.4851V23.34L56.8989 28.9878C57.6088 29.486 58.455 29.7532 59.3223 29.7532C60.1896 29.7532 61.0358 29.486 61.7458 28.9878L69.1436 23.8068V21.1436C69.1436 20.4561 68.9662 19.7803 68.6286 19.1816C68.291 18.5828 67.8046 18.0812 67.2164 17.7254C66.6282 17.3697 65.9582 17.1717 65.2711 17.1506C64.584 17.1296 63.9031 17.2862 63.2942 17.6053L59.33 20.4038Z" fill="#9E76B4"/>
</g>
<defs>
<clipPath id="clip0_509_10439">
<rect width="119" height="42" fill="white" transform="translate(0 6.96094)"/>
</clipPath>
</defs>
</svg>
