<svg width="160" height="56" viewBox="0 0 160 56" fill="none" xmlns="http://www.w3.org/2000/svg">
<path d="M126.126 27.854C126.141 27.2911 126.247 26.7344 126.44 26.2055C126.676 25.5446 127.047 24.9399 127.529 24.4295C128.122 23.8222 128.834 23.3429 129.619 23.0215C131.767 22.2363 134.124 22.2363 136.272 23.0215C137.054 23.3512 137.76 23.837 138.347 24.4491C138.83 24.9561 139.197 25.5622 139.422 26.2252C139.607 26.7557 139.71 27.3117 139.726 27.8736V38.2304C139.728 38.4081 139.695 38.5845 139.628 38.7491C139.562 38.9138 139.462 39.0632 139.336 39.1887C139.21 39.3141 139.061 39.4129 138.896 39.4792C138.731 39.5456 138.554 39.578 138.377 39.5747C138.198 39.5794 138.021 39.5479 137.855 39.4822C137.689 39.4164 137.537 39.3178 137.411 39.1923C137.284 39.0667 137.183 38.9168 137.116 38.7515C137.048 38.5862 137.015 38.409 137.018 38.2304V27.854C137.003 27.6406 136.97 27.4289 136.919 27.2211C136.832 26.8773 136.664 26.5594 136.429 26.2938C136.086 25.9326 135.667 25.6527 135.202 25.4745C134.479 25.2083 133.711 25.0866 132.941 25.1164C132.131 25.0792 131.324 25.2216 130.576 25.5334C130.101 25.7438 129.68 26.0591 129.344 26.4557C129.121 26.7241 128.964 27.042 128.888 27.383C128.839 27.6725 128.815 27.8344 128.815 27.8736V34.9826L131.13 32.662C130.869 32.5641 130.641 32.3939 130.473 32.1714C130.299 31.9454 130.207 31.6667 130.213 31.3815C130.21 31.2038 130.243 31.0274 130.31 30.8628C130.377 30.6982 130.476 30.5487 130.602 30.4233C130.728 30.2978 130.878 30.199 131.043 30.1327C131.208 30.0664 131.384 30.0339 131.562 30.0372H134.28C134.551 30.0372 134.815 30.1174 135.04 30.2678C135.269 30.4099 135.446 30.6213 135.546 30.8713C135.639 31.1237 135.662 31.3964 135.614 31.6611C135.567 31.9165 135.442 32.1511 135.256 32.3333L128.417 39.2117C128.295 39.3401 128.148 39.4421 127.986 39.5113C127.823 39.5805 127.647 39.6154 127.47 39.614C127.109 39.6062 126.766 39.4568 126.514 39.1979C126.263 38.9389 126.123 38.5914 126.126 38.2304V27.854Z" fill="#FFDB9C"/>
<path d="M128.093 16.2559H136.198V14.8282C136.195 14.655 136.228 14.483 136.293 14.3227C136.359 14.1625 136.457 14.0173 136.581 13.896C136.708 13.7664 136.861 13.665 137.03 13.5982C137.199 13.5315 137.38 13.5009 137.562 13.5084C137.739 13.5034 137.916 13.5353 138.081 13.602C138.245 13.6687 138.395 13.7688 138.519 13.896C138.644 14.0163 138.743 14.1612 138.81 14.3216C138.876 14.482 138.909 14.6545 138.906 14.8282V17.6247C138.909 17.7976 138.876 17.9693 138.81 18.1289C138.743 18.2885 138.644 18.4326 138.519 18.5519C138.395 18.6792 138.245 18.7793 138.081 18.846C137.916 18.9127 137.739 18.9445 137.562 18.9395H128.093C127.915 18.9442 127.739 18.9123 127.574 18.8456C127.41 18.7789 127.261 18.6789 127.136 18.5519C127.011 18.4326 126.912 18.2885 126.845 18.1289C126.779 17.9693 126.746 17.7976 126.749 17.6247C126.745 17.447 126.778 17.2705 126.844 17.1056C126.911 16.9408 127.009 16.7909 127.135 16.665C127.26 16.5392 127.41 16.4398 127.574 16.3729C127.739 16.306 127.915 16.2728 128.093 16.2755V16.2559Z" fill="#FFDB9C"/>
<path d="M144.778 27.8539C144.793 27.2911 144.899 26.7343 145.092 26.2055C145.329 25.5446 145.7 24.9398 146.182 24.4295C146.775 23.8221 147.486 23.3429 148.272 23.0214C150.421 22.2364 152.779 22.2364 154.929 23.0214C155.711 23.3512 156.417 23.837 157.004 24.4491C157.486 24.9563 157.851 25.5624 158.074 26.2251C158.26 26.7556 158.362 27.3117 158.378 27.8736V38.2304C158.382 38.4991 158.305 38.7627 158.159 38.9878C158.012 39.213 157.802 39.3893 157.554 39.4946C157.307 39.5998 157.034 39.629 156.77 39.5786C156.506 39.5283 156.263 39.4005 156.072 39.2116C155.942 39.0848 155.84 38.9317 155.773 38.7626C155.706 38.5935 155.676 38.4121 155.685 38.2304V27.8539C155.67 27.6406 155.637 27.4288 155.587 27.221C155.499 26.8772 155.331 26.5593 155.096 26.2938C154.754 25.9256 154.333 25.6403 153.864 25.4598C153.141 25.1935 152.373 25.0718 151.603 25.1016C150.793 25.0649 149.986 25.2073 149.238 25.5186C148.759 25.7336 148.335 26.0539 147.997 26.4557C147.773 26.724 147.617 27.0419 147.541 27.3829C147.491 27.6724 147.472 27.8343 147.472 27.8736V34.9825L149.773 32.6619C149.512 32.564 149.284 32.3939 149.115 32.1713C148.941 31.9454 148.849 31.6667 148.855 31.3814C148.853 31.2038 148.886 31.0274 148.953 30.8627C149.02 30.6981 149.119 30.5486 149.245 30.4232C149.371 30.2978 149.521 30.199 149.685 30.1326C149.85 30.0663 150.027 30.0339 150.205 30.0372H152.923C153.193 30.0371 153.458 30.1174 153.683 30.2677C153.911 30.4098 154.089 30.6213 154.188 30.8712C154.281 31.1237 154.305 31.3964 154.257 31.6611C154.211 31.9171 154.086 32.1522 153.899 32.3332L147.07 39.2116C146.948 39.34 146.801 39.442 146.638 39.5112C146.475 39.5804 146.3 39.6154 146.123 39.6139C145.762 39.6062 145.418 39.4567 145.167 39.1978C144.915 38.9389 144.776 38.5914 144.778 38.2304V27.8539Z" fill="#FFDB9C"/>
<path d="M146.746 16.2559H154.851V14.8282C154.848 14.6545 154.88 14.482 154.947 14.3216C155.014 14.1612 155.113 14.0163 155.238 13.896C155.362 13.7688 155.511 13.6687 155.676 13.602C155.841 13.5353 156.017 13.5034 156.195 13.5084C156.377 13.5009 156.558 13.5315 156.727 13.5982C156.896 13.665 157.049 13.7664 157.176 13.896C157.3 14.0173 157.398 14.1625 157.463 14.3227C157.529 14.483 157.562 14.655 157.559 14.8282V17.6247C157.562 17.7972 157.53 17.9685 157.464 18.128C157.398 18.2875 157.3 18.4318 157.176 18.5519C157.049 18.6815 156.896 18.783 156.727 18.8497C156.558 18.9165 156.377 18.9471 156.195 18.9395H146.746C146.568 18.9437 146.392 18.9114 146.227 18.8447C146.063 18.7781 145.914 18.6784 145.789 18.5519C145.664 18.4326 145.565 18.2885 145.498 18.1289C145.431 17.9693 145.399 17.7976 145.402 17.6247C145.394 17.4431 145.425 17.262 145.491 17.093C145.558 16.924 145.66 16.7708 145.789 16.6435C145.914 16.5179 146.064 16.4188 146.228 16.3523C146.392 16.2857 146.568 16.2529 146.746 16.2559Z" fill="#FFDB9C"/>
<path d="M56.965 20.8631C56.6479 20.8636 56.336 20.9433 56.0575 21.095C55.779 21.2466 55.5429 21.4654 55.3705 21.7315L50.1062 29.5813L44.994 21.7315C44.8037 21.4521 44.5408 21.2299 44.2336 21.0888C43.9439 20.9434 43.6254 20.8646 43.3014 20.8582C43.0378 20.8535 42.776 20.9018 42.5316 21.0004C42.2871 21.0991 42.0651 21.2459 41.8786 21.4322C41.6894 21.6113 41.539 21.8275 41.4369 22.0672C41.3347 22.3069 41.283 22.565 41.285 22.8256V37.3722C41.2634 37.8795 41.4392 38.3754 41.7756 38.7558C41.9447 38.945 42.153 39.0953 42.386 39.1961C42.6189 39.2969 42.871 39.3459 43.1248 39.3396C43.3832 39.3482 43.6403 39.3004 43.8784 39.1996C44.1165 39.0988 44.3298 38.9473 44.5034 38.7558C44.8398 38.3754 45.0156 37.8795 44.994 37.3722V28.5412L48.3841 33.8153L48.4136 33.8595C48.6049 34.0912 48.8358 34.2872 49.0955 34.4384C49.3615 34.6034 49.6707 34.6854 49.9835 34.6739C50.3042 34.6864 50.6215 34.6045 50.8961 34.4384C51.1533 34.2857 51.3823 34.0899 51.5731 33.8595L54.9436 28.7277V37.3722C54.9381 37.6318 54.9858 37.8897 55.0837 38.1302C55.1815 38.3707 55.3275 38.5885 55.5127 38.7705C55.7053 38.962 55.9356 39.1115 56.1889 39.2095C56.4423 39.3075 56.7132 39.3518 56.9846 39.3396C57.2462 39.349 57.507 39.3049 57.7509 39.21C57.9949 39.1151 58.217 38.9714 58.4034 38.7876C58.5899 38.6039 58.7369 38.384 58.8355 38.1415C58.934 37.899 58.982 37.6389 58.9765 37.3771V22.8305C58.9831 22.5608 58.9307 22.2928 58.8231 22.0454C58.7155 21.798 58.5552 21.577 58.3534 21.3979C57.9757 21.0492 57.479 20.8579 56.965 20.8631Z" fill="#FFB717"/>
<path d="M72.6196 26.8827C72.0044 26.2402 71.2737 25.7193 70.4658 25.3471C69.6435 24.9664 68.7472 24.772 67.841 24.778C66.6614 24.7797 65.5033 25.0946 64.4853 25.6905C63.4261 26.3222 62.5528 27.2226 61.9537 28.3006C61.2739 29.5479 60.9355 30.9526 60.9725 32.3726C60.9527 33.6535 61.26 34.9183 61.8654 36.0473C62.4645 37.1362 63.3568 38.0353 64.4411 38.6427C65.4351 39.16 66.5237 39.4702 67.6411 39.5545C68.7585 39.6389 69.8813 39.4955 70.9417 39.1333C71.6527 38.9064 72.3173 38.5542 72.9042 38.0932C73.1642 37.9199 73.3791 37.6871 73.531 37.414C73.6829 37.1409 73.7674 36.8355 73.7774 36.5232C73.7776 36.3035 73.7343 36.086 73.6501 35.8831C73.5659 35.6802 73.4424 35.4959 73.2868 35.3408C72.7324 34.7717 71.9131 34.6491 70.9908 35.1103C70.7994 35.2133 70.5885 35.3408 70.353 35.488C70.111 35.6281 69.8498 35.7323 69.5778 35.7971C69.1311 35.902 68.6726 35.9482 68.2139 35.9345C67.6233 35.9352 67.0423 35.7849 66.5262 35.4978C65.9902 35.1973 65.5446 34.7585 65.2359 34.2272C65.1248 34.0423 65.0328 33.8467 64.9611 33.6433H72.6834C73.1725 33.6442 73.6458 33.4701 74.0178 33.1527C74.2103 32.994 74.3664 32.7957 74.4756 32.5714C74.5848 32.3471 74.6445 32.102 74.6507 31.8526C74.6543 30.9139 74.4674 29.9842 74.1012 29.1199C73.7464 28.2909 73.2444 27.5329 72.6196 26.8827ZM65.6333 29.164C65.8975 28.8996 66.2227 28.7042 66.5802 28.5949C67.417 28.3161 68.3273 28.3563 69.1363 28.7078C69.5281 28.8964 69.8732 29.1695 70.1469 29.5075C70.3304 29.7317 70.4597 29.9953 70.5247 30.2777H64.9857C65.1136 29.8619 65.3351 29.4809 65.6333 29.164Z" fill="#FFB717"/>
<path d="M87.132 25.6564C86.229 25.0183 85.1349 24.7084 84.0313 24.7782C83.4433 24.7741 82.859 24.872 82.3044 25.0677C81.7981 25.2483 81.3205 25.5011 80.8865 25.8183C80.6519 25.9935 80.4275 26.1818 80.2144 26.3825C80.11 26.0645 79.926 25.7784 79.6798 25.5515C79.4337 25.3246 79.1336 25.1645 78.8081 25.0863C78.4826 25.0081 78.1425 25.0145 77.8202 25.1049C77.4979 25.1952 77.204 25.3665 76.9665 25.6025C76.7852 25.7865 76.6426 26.0051 76.5474 26.2453C76.4521 26.4855 76.4061 26.7424 76.4121 27.0007V37.3722C76.4062 37.6298 76.4523 37.8859 76.5475 38.1253C76.6428 38.3647 76.7853 38.5825 76.9665 38.7656C77.1489 38.9488 77.3656 39.0942 77.6043 39.1934C77.843 39.2925 78.0989 39.3436 78.3574 39.3436C78.6159 39.3436 78.8718 39.2925 79.1105 39.1934C79.3492 39.0942 79.566 38.9488 79.7483 38.7656C79.9295 38.5825 80.072 38.3647 80.1673 38.1253C80.2625 37.8859 80.3086 37.6298 80.3027 37.3722V30.9403C80.2954 30.4926 80.4018 30.0504 80.6118 29.6549C80.8198 29.2782 81.1291 28.9672 81.5047 28.7571C81.9566 28.5152 82.4643 28.3967 82.9765 28.4137C83.4404 28.3813 83.9029 28.4926 84.3012 28.7326C84.5922 28.9405 84.8061 29.239 84.9095 29.5813C85.0445 30.0215 85.1107 30.4799 85.1058 30.9403V37.3722C85.099 37.6295 85.1441 37.8855 85.2385 38.1249C85.333 38.3643 85.4747 38.5822 85.6553 38.7656C85.8376 38.9488 86.0544 39.0942 86.2931 39.1934C86.5317 39.2925 86.7877 39.3436 87.0462 39.3436C87.3046 39.3436 87.5606 39.2925 87.7993 39.1934C88.038 39.0942 88.2547 38.9488 88.437 38.7656C88.6183 38.5825 88.7608 38.3647 88.856 38.1253C88.9513 37.8859 88.9973 37.6298 88.9914 37.3722V30.9403C89.0023 29.9299 88.8735 28.9228 88.6088 27.9476C88.3705 27.0472 87.8536 26.2453 87.132 25.6564Z" fill="#FFB717"/>
<path d="M97.9204 28.9089C98.162 28.9192 98.4032 28.881 98.6298 28.7968C98.8564 28.7125 99.0639 28.5839 99.2402 28.4183C99.414 28.2542 99.5514 28.0554 99.6435 27.8349C99.7356 27.6143 99.7804 27.3768 99.7749 27.1378C99.7789 26.8951 99.734 26.6541 99.643 26.4291C99.5519 26.2041 99.4166 25.9997 99.2449 25.828C99.0733 25.6564 98.8689 25.521 98.6439 25.43C98.4189 25.3389 98.1778 25.294 97.9351 25.298H96.586V24.1107C96.5995 23.5947 96.4091 23.0941 96.0561 22.7174C95.8783 22.5292 95.6626 22.3807 95.4233 22.2818C95.184 22.1828 94.9265 22.1357 94.6677 22.1434C94.409 22.1401 94.1524 22.1886 93.9128 22.2861C93.6732 22.3835 93.4556 22.5279 93.2727 22.7108C93.0898 22.8937 92.9453 23.1114 92.8479 23.351C92.7504 23.5905 92.7019 23.8472 92.7052 24.1058V25.2784H91.9889C91.749 25.2698 91.5098 25.3087 91.2849 25.3929C91.0601 25.4771 90.8542 25.6049 90.679 25.769C90.5061 25.9339 90.3694 26.1328 90.2773 26.3532C90.1853 26.5736 90.14 26.8107 90.1442 27.0495C90.1376 27.2926 90.1801 27.5345 90.269 27.7608C90.358 27.9871 90.4916 28.1932 90.6619 28.3668C90.8323 28.5403 91.0358 28.6778 91.2604 28.7709C91.485 28.8641 91.7261 28.911 91.9693 28.9089H92.6856V35.4095C92.6514 36.1488 92.7996 36.8851 93.1173 37.5535C93.3664 38.0487 93.7465 38.4662 94.2163 38.7604C94.6356 39.0166 95.1033 39.1836 95.59 39.251C95.9961 39.3112 96.406 39.3424 96.8165 39.3443C97.4735 39.3468 98.1184 39.1686 98.6809 38.8291C98.919 38.7085 99.1272 38.5362 99.2902 38.3247C99.4531 38.1132 99.5667 37.868 99.6227 37.607C99.6787 37.346 99.6756 37.0758 99.6136 36.8161C99.5517 36.5564 99.4325 36.3139 99.2647 36.1062C99.1484 35.9561 98.9999 35.834 98.83 35.7491C98.6601 35.6642 98.4734 35.6185 98.2835 35.6156C98.0226 35.6117 97.7637 35.6619 97.523 35.7628C97.4096 35.8103 97.2879 35.8347 97.1649 35.8347C97.0419 35.8347 96.9202 35.8103 96.8067 35.7628C96.7331 35.7323 96.6712 35.679 96.6301 35.6107C96.5745 35.5034 96.549 35.383 96.5565 35.2624V28.9089H97.9204Z" fill="#FFB717"/>
<path d="M113.085 24.778C112.826 24.7712 112.569 24.8188 112.33 24.9177C112.091 25.0165 111.875 25.1645 111.696 25.352C111.519 25.5295 111.381 25.7416 111.289 25.9751C110.792 25.6196 110.247 25.3356 109.67 25.1312C108.985 24.8902 108.263 24.7707 107.536 24.778C106.365 24.7746 105.218 25.1158 104.239 25.7592C103.239 26.4151 102.429 27.3218 101.889 28.3889C101.321 29.5811 101.026 30.8851 101.026 32.2058C101.026 33.5266 101.321 34.8306 101.889 36.0228C102.434 37.0931 103.253 37.9991 104.264 38.6476C105.271 39.2936 106.443 39.6344 107.639 39.6288C108.297 39.6329 108.951 39.5165 109.567 39.2854C110.11 39.0827 110.622 38.8053 111.088 38.4612C111.172 38.4023 111.25 38.3385 111.329 38.2747C111.418 38.4723 111.543 38.6519 111.696 38.8046C111.879 38.9878 112.096 39.1331 112.334 39.2323C112.573 39.3315 112.829 39.3826 113.087 39.3826C113.346 39.3826 113.602 39.3315 113.84 39.2323C114.079 39.1331 114.296 38.9878 114.478 38.8046C114.659 38.6215 114.802 38.4037 114.897 38.1643C114.992 37.9249 115.039 37.6688 115.033 37.4112V26.7502C115.042 26.4901 114.997 26.231 114.901 25.9888C114.806 25.7467 114.662 25.5268 114.478 25.3428C114.294 25.1588 114.074 25.0145 113.832 24.919C113.589 24.8236 113.33 24.7789 113.07 24.7878L113.085 24.778ZM110.848 30.2287C111.136 30.8422 111.28 31.5134 111.27 32.1911C111.283 32.8691 111.138 33.5409 110.848 34.1536C110.598 34.6961 110.202 35.1583 109.705 35.488C109.205 35.8196 108.616 35.9908 108.017 35.9787C107.424 35.9896 106.842 35.8184 106.349 35.488C105.853 35.1556 105.458 34.6942 105.206 34.1536C104.915 33.5409 104.771 32.8691 104.784 32.1911C104.773 31.5134 104.918 30.8422 105.206 30.2287C105.462 29.6943 105.856 29.2385 106.349 28.9089C106.842 28.5792 107.424 28.408 108.017 28.4183C108.616 28.4083 109.204 28.5793 109.705 28.9089C110.197 29.2385 110.592 29.6943 110.848 30.2287Z" fill="#FFB717"/>
<path d="M121.028 20.4609C120.851 20.272 120.635 20.1228 120.396 20.023C120.157 19.9233 119.899 19.8752 119.64 19.882C119.119 19.882 118.62 20.0887 118.252 20.4568C117.884 20.8248 117.677 21.324 117.677 21.8444V37.3723C117.672 37.6294 117.717 37.8851 117.812 38.1244C117.906 38.3636 118.047 38.5816 118.227 38.7656C118.402 38.9516 118.615 39.0988 118.85 39.1977C119.086 39.2965 119.34 39.3449 119.596 39.3397C119.854 39.343 120.111 39.2944 120.35 39.197C120.59 39.0995 120.808 38.9551 120.991 38.7722C121.173 38.5893 121.318 38.3717 121.415 38.1321C121.513 37.8925 121.561 37.6358 121.558 37.3772V21.8493C121.57 21.335 121.38 20.8364 121.028 20.4609Z" fill="#FFB717"/>
<path d="M19.172 36.2685C19.2799 34.9536 17.8081 33.4082 16.4442 33.4622C16.2234 31.8235 15.3011 30.8864 13.6134 30.6706C13.682 29.758 13.1767 29.1055 12.5291 28.5217C12.117 28.1256 11.5675 27.9044 10.9959 27.9044C10.4243 27.9044 9.87492 28.1256 9.46278 28.5217C8.63528 29.3165 7.82577 30.1342 7.03425 30.9747C6.79704 31.2675 6.58685 31.5811 6.40627 31.9118C6.36211 31.8677 6.28361 31.799 6.21002 31.7205C5.25078 30.8074 4.34025 29.8445 3.48222 28.8357C-0.663456 23.4929 2.50099 15.5352 9.21257 14.5098C10.4651 14.3009 11.7481 14.3683 12.9719 14.7073C14.1956 15.0463 15.3305 15.6487 16.297 16.4723L16.4442 16.6047C16.4603 16.6292 16.4735 16.6556 16.4834 16.6832C16.4148 16.7519 16.3461 16.8353 16.2725 16.9089L10.3851 22.8453C9.40391 23.8265 9.51184 24.9108 10.6108 25.7203C11.2639 26.211 12.0745 26.4447 12.8886 26.3768C13.7027 26.309 14.4635 25.9444 15.0263 25.3523C16.4099 23.9835 17.7787 22.5951 19.1524 21.2165C19.643 20.7259 19.854 20.7259 20.3298 21.2165L28.6703 29.6158C29.3326 30.2781 29.3228 30.8668 28.6703 31.5439C28.2974 31.9265 27.9 32.2258 27.3456 32.0345C27.1 31.9434 26.8785 31.7974 26.698 31.6076C24.6898 29.5863 22.6913 27.5715 20.7027 25.5633C20.634 25.4946 20.5653 25.421 20.4917 25.3572C20.387 25.2582 20.2483 25.203 20.1042 25.203C19.96 25.203 19.8213 25.2582 19.7166 25.3572C19.6623 25.4077 19.6191 25.4689 19.5895 25.5368C19.56 25.6048 19.5447 25.6781 19.5447 25.7522C19.5447 25.8263 19.56 25.8996 19.5895 25.9675C19.6191 26.0355 19.6623 26.0966 19.7166 26.1471C20.2072 26.6377 20.6978 27.1627 21.2179 27.668L25.8492 32.3436C26.5606 33.0549 26.5655 33.6241 25.8492 34.306C25.6572 34.518 25.4211 34.6855 25.1575 34.7966C24.9457 34.8593 24.72 34.8573 24.5093 34.7909C24.2986 34.7244 24.1126 34.5966 23.9751 34.4237C22.0453 32.4809 20.114 30.5414 18.181 28.6051L17.8572 28.2764C17.5284 27.9526 17.1948 27.9133 16.9446 28.1734C16.6944 28.4334 16.7435 28.7474 17.0575 29.0663C19.0886 31.1072 21.1181 33.1498 23.146 35.194C23.3478 35.3899 23.4949 35.6351 23.5728 35.9054C23.7347 36.553 23.298 37.0485 22.5916 37.5048C22.1402 37.8041 21.6103 37.652 21.1492 37.1761C20.4819 36.4794 20.2513 36.3764 19.172 36.2685Z" fill="#FFE7B2"/>
<path d="M32.8948 21.9763C32.3208 18.488 30.3289 16.0448 27.0075 14.8869C25.4693 14.2958 23.792 14.1667 22.1814 14.5153C20.5708 14.8639 19.097 15.6751 17.941 16.8494C15.5958 19.062 13.3635 21.4072 11.0724 23.6934C10.9949 23.7526 10.9332 23.8301 10.8931 23.9189C10.8529 24.0078 10.8354 24.1053 10.8423 24.2025C10.8491 24.2998 10.8799 24.3939 10.9321 24.4763C10.9842 24.5587 11.0561 24.6269 11.1411 24.6746C11.5832 25.0355 12.1448 25.2171 12.7145 25.1835C13.2842 25.1499 13.8206 24.9035 14.2172 24.4931C15.5909 23.1292 16.9548 21.7506 18.3236 20.3769C19.2313 19.4643 20.188 19.4643 21.0956 20.3769C23.8757 23.1668 26.6559 25.9617 29.436 28.7614C29.7365 29.1192 30.0135 29.4962 30.2651 29.8899L30.4467 29.7083C31.451 28.7146 32.1987 27.4915 32.6252 26.1445C33.0517 24.7975 33.1442 23.367 32.8948 21.9763Z" fill="#FFC74A"/>
<path d="M14.6295 34.4531C15.488 33.6681 15.5224 32.9813 14.5853 32.1472C14.4802 32.0353 14.3533 31.946 14.2124 31.885C14.0715 31.824 13.9196 31.7925 13.766 31.7925C13.6124 31.7925 13.4605 31.824 13.3196 31.885C13.1787 31.946 13.0517 32.0353 12.9467 32.1472C12.1666 32.9175 11.3865 33.6878 10.6359 34.4826C10.4591 34.7212 10.3109 34.9797 10.1943 35.2528C10.2753 35.7102 10.5259 36.1201 10.8959 36.4008C11.002 36.5356 11.1372 36.6445 11.2915 36.7193C11.4457 36.7942 11.6149 36.8331 11.7864 36.8331C11.9578 36.8331 12.127 36.7942 12.2813 36.7193C12.4355 36.6445 12.5708 36.5356 12.6768 36.4008C13.3293 35.7778 13.9524 35.0762 14.6295 34.4531Z" fill="#FFC74A"/>
<path d="M18.3774 37.8382L16.2677 39.9576C15.8262 40.3992 15.6692 40.8701 15.9243 41.3068C16.056 41.6152 16.2697 41.8816 16.5421 42.0771C16.8146 42.2725 17.1354 42.3896 17.4697 42.4156C17.7045 42.3286 17.9245 42.2061 18.1222 42.0525C18.9317 41.2823 19.7069 40.4826 20.4919 39.6878C20.6123 39.5676 20.7039 39.4218 20.76 39.2612C20.816 39.1007 20.8351 38.9295 20.8157 38.7605C20.7442 38.4008 20.5435 38.0797 20.2515 37.8578C19.6088 37.1906 19.0299 37.1856 18.3774 37.8382Z" fill="#FFC74A"/>
<path d="M12.1506 31.3621C12.3229 31.1663 12.4383 30.927 12.4842 30.6703C12.5873 30.1257 12.2193 29.7823 11.871 29.4438C11.7657 29.3119 11.6321 29.2054 11.4801 29.1322C11.3281 29.059 11.1615 29.021 10.9928 29.021C10.824 29.021 10.6575 29.059 10.5054 29.1322C10.3534 29.2054 10.2198 29.3119 10.1146 29.4438C9.39337 30.165 8.68198 30.9156 7.95587 31.6074C7.7479 31.7561 7.59801 31.9724 7.5318 32.2194C7.46559 32.4663 7.48715 32.7286 7.59282 32.9615C7.72429 33.2684 7.93476 33.5349 8.20279 33.734C8.47082 33.9331 8.78683 34.0576 9.11863 34.0948C9.36748 34.0013 9.60072 33.8706 9.81039 33.7072C10.6101 32.9271 11.3902 32.1421 12.1506 31.3621Z" fill="#FFC74A"/>
<path d="M17.7101 36.9013C17.8763 36.668 18.0146 36.4161 18.1223 36.1507C18.0388 35.6635 17.7653 35.2294 17.3618 34.9438C17.2567 34.831 17.1295 34.7411 16.9881 34.6796C16.8467 34.6182 16.6942 34.5864 16.54 34.5864C16.3859 34.5864 16.2333 34.6182 16.092 34.6796C15.9506 34.7411 15.8234 34.831 15.7183 34.9438C14.9333 35.719 14.1548 36.5007 13.3829 37.2889C13.2766 37.3927 13.192 37.5167 13.1343 37.6536C13.0766 37.7905 13.0469 37.9376 13.0469 38.0862C13.0469 38.2348 13.0766 38.3818 13.1343 38.5188C13.192 38.6557 13.2766 38.7797 13.3829 38.8834C13.5154 39.0257 13.6528 39.168 13.8 39.3004C14.0101 39.4988 14.2897 39.6069 14.5787 39.6014C14.8676 39.5959 15.1429 39.4772 15.3454 39.271C16.1451 38.4909 16.9399 37.706 17.7101 36.9013Z" fill="#FFC74A"/>
</svg>
