<svg width="16" height="30" preserveAspectRatio="none" viewBox="0 0 16 30" fill="none" xmlns="http://www.w3.org/2000/svg">
<path d="M8.052 13.593C8.08001 10.1339 8.10247 6.67472 8.14032 3.21558C8.14801 2.52612 8.20214 1.83564 8.26964 1.14896C8.28198 1.03536 8.32832 0.928133 8.4026 0.841294C8.47688 0.754456 8.57563 0.692055 8.68595 0.662251C8.86257 0.605858 9.11312 0.801911 9.14996 1.03606C9.18579 1.26315 9.24105 1.48908 9.2548 1.71731C9.34311 3.17482 9.46814 4.63221 9.49451 6.09111C9.54838 9.08839 9.56187 12.0866 9.56527 15.0845C9.56855 17.9287 9.5331 20.7731 9.52642 23.6173C9.52541 24.074 9.58281 24.531 9.62356 24.9869C9.63104 25.0171 9.646 25.045 9.66705 25.068C9.6881 25.091 9.71458 25.1083 9.74405 25.1184C9.81458 25.1266 9.93328 25.1057 9.95852 25.0589C10.4338 24.1849 10.9336 23.3216 11.3576 22.4229C12.3439 20.332 13.5535 18.3706 14.7672 16.4106C14.9666 16.0886 15.1692 15.7509 15.565 15.621C15.637 15.5974 15.7604 15.5606 15.7845 15.5906C15.8848 15.6981 15.9568 15.8288 15.9943 15.971C16.0122 16.1224 15.9877 16.2757 15.9235 16.414C15.7016 16.9038 15.4701 17.39 15.2213 17.8665C13.4433 21.2722 11.6546 24.6721 9.8813 28.0802C9.21266 29.3657 8.56422 29.9766 7.09409 28.4334C6.67045 27.9888 6.24718 27.5391 5.87034 27.0557C4.12094 24.8136 2.38223 22.5633 0.65419 20.3048C0.431423 19.9942 0.233166 19.6668 0.061235 19.3254C-0.059625 19.1027 0.0121635 18.8798 0.156994 18.6875C0.316584 18.476 0.780603 18.3446 0.984602 18.4176C1.43751 18.5797 1.7698 18.9026 2.07069 19.2495C3.22908 20.5849 4.3791 21.9274 5.52076 23.2771C6.26686 24.1541 7.00198 25.0404 7.7496 25.9161C7.78656 25.9593 7.90099 25.9615 7.96987 25.9439C7.99968 25.9324 8.02625 25.9139 8.0473 25.8898C8.06835 25.8658 8.08326 25.837 8.09073 25.8059C8.12088 25.3484 8.15899 24.8898 8.1566 24.4317C8.13751 20.8187 8.1137 17.2056 8.08519 13.5926L8.052 13.593Z" fill="#333333"/>
</svg>
