<svg width="5" height="8" viewBox="0 0 5 8" fill="none" xmlns="http://www.w3.org/2000/svg">
<path d="M4.18155 3.83079C3.72282 3.46784 3.31464 3.14242 2.90394 2.81976C2.23137 2.29133 1.54875 1.77516 0.888172 1.23236C0.612767 1.00576 0.381031 0.725996 0.133702 0.466343C0.0275303 0.354865 -0.0652689 0.211322 0.0606892 0.0769632C0.200464 -0.0722631 0.353002 0.0216996 0.469674 0.137765C1.72478 1.38651 3.27856 2.2438 4.65746 3.33044C5.0638 3.65067 5.11674 3.92026 4.7727 4.31648C4.6662 4.44347 4.55059 4.56253 4.42678 4.6727C3.52672 5.44547 2.63252 6.22575 1.71472 6.97697C1.42003 7.21816 1.06254 7.38425 0.726562 7.57189C0.669303 7.60389 0.518474 7.59091 0.50952 7.56488C0.476359 7.46904 0.44 7.32892 0.48615 7.25956C0.667543 6.98648 0.848384 6.69959 1.08715 6.48072C1.66338 5.95257 2.27322 5.46117 2.8672 4.9522C3.2165 4.65286 3.56077 4.3476 3.90863 4.0465C3.98474 3.98061 4.06664 3.92121 4.18155 3.83079Z" fill="#333333"/>
</svg>
