<svg width="20" height="20" viewBox="0 0 20 20" fill="none" xmlns="http://www.w3.org/2000/svg">
<g id="Gmail">
<g id="Gmail_2">
<rect id="Rectangle" width="20" height="20" rx="10" fill="#333333"/>
<g id="Group">
<path id="Vector" opacity="0.3" d="M15.6247 5.41711H4.37549L4.79215 14.479H15.208L15.6247 5.41711Z" fill="#FFFDFA"/>
<path id="Vector_2" opacity="0.3" d="M15.6247 5.41711H4.37549L9.5573 9.28385H10.5208L15.6247 5.41711Z" fill="#FFFDFA"/>
<path id="Vector 2" opacity="0.1" d="M5.3125 14.4792L10 10.2604L14.6875 14.4792H5.3125Z" fill="#FFFDFA"/>
<g id="Group_2">
<path id="Vector_3" fill-rule="evenodd" clip-rule="evenodd" d="M5.31294 6.19843C5.31294 5.76721 4.96359 5.41724 4.53174 5.41724C4.10052 5.41724 3.75055 5.76721 3.75055 6.19843C3.75055 7.86206 3.75055 11.7487 3.75055 13.5417C3.75055 14.0598 4.17052 14.4791 4.68798 14.4791C5.02046 14.4791 5.31294 14.4791 5.31294 14.4791C5.31294 14.4791 5.31294 8.39765 5.31294 6.19843Z" fill="#FFFDFA"/>
<path id="Vector_4" fill-rule="evenodd" clip-rule="evenodd" d="M14.6873 6.19831C14.6873 5.76709 15.0372 5.41711 15.4685 5.41711C15.4691 5.41711 15.4697 5.41711 15.4697 5.41711C15.9009 5.41711 16.2496 5.76646 16.2496 6.19706C16.2496 7.86007 16.2496 11.7479 16.2496 13.5415C16.2496 14.0596 15.8303 14.479 15.3122 14.479C14.9804 14.479 14.6873 14.479 14.6873 14.479C14.6873 14.479 14.6873 8.39753 14.6873 6.19831Z" fill="#FFFDFA"/>
<path id="Vector_5" fill-rule="evenodd" clip-rule="evenodd" d="M4.14041 6.87452C3.96105 6.77078 3.83043 6.60079 3.77669 6.40081C3.72294 6.20082 3.75106 5.98834 3.85481 5.80897C3.85481 5.80897 3.85543 5.80835 3.85543 5.80772C3.95918 5.62836 4.12979 5.49775 4.32977 5.444C4.52976 5.39025 4.74287 5.41838 4.92223 5.52212L10 8.45379L15.079 5.52149C15.2584 5.41775 15.4709 5.38963 15.6709 5.44338C15.8708 5.49712 16.0408 5.62774 16.1446 5.8071L16.1452 5.80772C16.2489 5.98709 16.2771 6.20082 16.2233 6.40081C16.1696 6.60079 16.0383 6.77141 15.859 6.87515L11.5624 9.3556L10 10.258L8.43761 9.3556L4.14041 6.87452V6.87452Z" fill="#FFFDFA"/>
</g>
</g>
</g>
</g>
</svg>
