<svg width="24" height="18" viewBox="0 0 24 18" fill="none" xmlns="http://www.w3.org/2000/svg">
<g clip-path="url(#clip0_255_3831)">
<path d="M0.0179555 16.3516C-0.0425138 16.7424 0.277968 17.1882 0.71761 17.3253C0.947788 17.3971 1.18637 17.4384 1.42728 17.4482C1.62839 17.4556 1.82951 17.4644 2.03063 17.4735C2.50138 17.4943 2.98342 17.5158 3.46529 17.5158C3.6589 17.5158 3.85248 17.5123 4.04502 17.5038C4.98236 17.4636 5.93406 17.4035 6.85437 17.3454C7.95676 17.276 9.09655 17.2044 10.2178 17.1655C13.137 17.0645 16.0673 16.6627 18.9012 16.2741L19.2688 16.2237C19.9332 16.1329 20.6202 16.0387 21.29 15.9057C21.3197 15.9 21.3502 15.8947 21.3813 15.8895C21.6504 15.8436 22.057 15.7745 22.1617 15.1562C22.1673 15.1227 22.1605 15.0883 22.1424 15.0596C22.1243 15.0309 22.0962 15.0098 22.0635 15.0006C21.9931 14.9804 21.928 14.9583 21.8662 14.9372C21.7396 14.8875 21.6067 14.855 21.4714 14.8409L21.0444 14.8157C20.0592 14.7575 19.0405 14.6974 18.0365 14.6705C15.1915 14.5927 12.3443 14.6668 9.50712 14.8923C7.67937 15.0399 5.81836 15.1606 4.0185 15.2775C3.10677 15.3366 2.19498 15.397 1.28325 15.4586C1.08855 15.4672 0.895749 15.5004 0.709427 15.5576C0.530239 15.6097 0.369814 15.7121 0.247224 15.853C0.124634 15.9937 0.0450174 16.1668 0.0179555 16.3516Z" fill="#333333"/>
<path d="M0.505911 9.33325C0.501468 9.47949 0.538546 9.62401 0.612821 9.75004C0.687095 9.87608 0.79551 9.97849 0.925562 10.0454C1.14646 10.154 1.38655 10.218 1.63216 10.2338C1.95784 10.2538 2.29959 10.271 2.64658 10.271C2.81632 10.271 2.98719 10.2669 3.15801 10.2569C4.177 10.1984 5.21127 10.1292 6.21203 10.0624C8.0855 9.93738 10.0227 9.80751 11.9291 9.74218C14.5243 9.65283 17.1335 9.33393 19.6567 9.0255C20.3182 8.945 20.9792 8.86551 21.64 8.78708C21.6925 8.78105 21.7459 8.7761 21.8001 8.77113C22.1867 8.73558 22.6682 8.69131 23.1596 8.16473C23.1748 8.1484 23.1859 8.12861 23.1917 8.10711C23.1976 8.0856 23.1982 8.06302 23.1934 8.04125C23.1887 8.01946 23.1786 7.99915 23.1643 7.98206C23.1501 7.96497 23.1319 7.95159 23.1112 7.94309C22.2136 7.57361 21.4372 7.52302 20.6552 7.50035L19.9726 7.48062C17.8107 7.4177 15.5756 7.35264 13.3682 7.43756C9.6577 7.58057 6.02406 7.94189 1.99917 8.36449C1.62082 8.40583 1.25204 8.51039 0.908277 8.67385C0.785863 8.73457 0.683105 8.82873 0.611904 8.94542C0.540703 9.0621 0.503967 9.19655 0.505911 9.33325Z" fill="#333333"/>
<path d="M1.26961 2.33907C1.53129 2.46679 1.81433 2.54482 2.10446 2.56917C2.26357 2.58097 2.42276 2.59314 2.58204 2.60566C3.31719 2.66254 4.07543 2.72128 4.82654 2.72128C4.8846 2.72128 4.94276 2.7213 5.00081 2.72023C6.4207 2.70239 7.86381 2.66924 9.25945 2.63717C11.1111 2.59478 13.0258 2.55089 14.9085 2.54217C17.6035 2.5297 20.3108 2.2214 22.9292 1.9233L23.0132 1.9138C23.1782 1.88215 23.3359 1.82005 23.4783 1.73067C23.5736 1.68023 23.6817 1.62334 23.8144 1.56189C23.8381 1.55098 23.8583 1.53355 23.8725 1.51165C23.8867 1.48974 23.8943 1.46426 23.8946 1.43815C23.895 1.41204 23.8879 1.38638 23.8742 1.36416C23.8604 1.34194 23.8407 1.32405 23.8172 1.3126C23.6805 1.24552 23.5654 1.18113 23.4639 1.12371C23.3047 1.01646 23.1258 0.941901 22.9374 0.904359L22.423 0.842388C21.4235 0.721645 20.3901 0.596196 19.3674 0.553534C13.8578 0.323315 8.26321 0.53946 2.85302 0.748615L1.88206 0.786052C1.73522 0.791838 1.58934 0.812553 1.4467 0.847892C1.28352 0.878641 1.13443 0.960693 1.02109 1.08211C0.907751 1.20353 0.836046 1.35799 0.816506 1.52298C0.791366 1.68997 0.822212 1.8606 0.904168 2.00823C0.986124 2.15586 1.11463 2.27219 1.26961 2.33907Z" fill="#333333"/>
</g>
<defs>
<clipPath id="clip0_255_3831">
<rect width="24" height="17.1724" fill="white" transform="translate(0 0.413574)"/>
</clipPath>
</defs>
</svg>
