<svg width="24" height="24" viewBox="0 0 24 24" fill="none" xmlns="http://www.w3.org/2000/svg">
<g clip-path="url(#clip0_210_2926)">
<path d="M0.0179555 19.3516C-0.0425138 19.7424 0.277968 20.1882 0.71761 20.3253C0.947788 20.3971 1.18637 20.4384 1.42728 20.4482C1.62839 20.4556 1.82951 20.4644 2.03063 20.4735C2.50138 20.4943 2.98342 20.5158 3.46529 20.5158C3.6589 20.5158 3.85248 20.5123 4.04502 20.5038C4.98236 20.4636 5.93406 20.4035 6.85437 20.3454C7.95676 20.276 9.09655 20.2044 10.2178 20.1655C13.137 20.0645 16.0673 19.6627 18.9012 19.2741L19.2688 19.2237C19.9332 19.1329 20.6202 19.0387 21.29 18.9057C21.3197 18.9 21.3502 18.8947 21.3813 18.8895C21.6504 18.8436 22.057 18.7745 22.1617 18.1562C22.1673 18.1227 22.1605 18.0883 22.1424 18.0596C22.1243 18.0309 22.0962 18.0098 22.0635 18.0006C21.9931 17.9804 21.928 17.9583 21.8662 17.9372C21.7396 17.8875 21.6067 17.855 21.4714 17.8409L21.0444 17.8157C20.0592 17.7575 19.0405 17.6974 18.0365 17.6705C15.1915 17.5927 12.3443 17.6668 9.50712 17.8923C7.67937 18.0399 5.81836 18.1606 4.0185 18.2775C3.10677 18.3366 2.19498 18.397 1.28325 18.4586C1.08855 18.4672 0.895749 18.5004 0.709427 18.5576C0.530239 18.6097 0.369814 18.7121 0.247224 18.853C0.124634 18.9937 0.0450174 19.1668 0.0179555 19.3516Z" fill="#333333"/>
<path d="M0.505911 12.3332C0.501468 12.4795 0.538546 12.624 0.612821 12.75C0.687095 12.8761 0.79551 12.9785 0.925562 13.0454C1.14646 13.154 1.38655 13.218 1.63216 13.2338C1.95784 13.2538 2.29959 13.271 2.64658 13.271C2.81632 13.271 2.98719 13.2669 3.15801 13.2569C4.177 13.1984 5.21127 13.1292 6.21203 13.0624C8.0855 12.9374 10.0227 12.8075 11.9291 12.7422C14.5243 12.6528 17.1335 12.3339 19.6567 12.0255C20.3182 11.945 20.9792 11.8655 21.64 11.7871C21.6925 11.781 21.7459 11.7761 21.8001 11.7711C22.1867 11.7356 22.6682 11.6913 23.1596 11.1647C23.1748 11.1484 23.1859 11.1286 23.1917 11.1071C23.1976 11.0856 23.1982 11.063 23.1934 11.0412C23.1887 11.0195 23.1786 10.9992 23.1643 10.9821C23.1501 10.965 23.1319 10.9516 23.1112 10.9431C22.2136 10.5736 21.4372 10.523 20.6552 10.5003L19.9726 10.4806C17.8107 10.4177 15.5756 10.3526 13.3682 10.4376C9.6577 10.5806 6.02406 10.9419 1.99917 11.3645C1.62082 11.4058 1.25204 11.5104 0.908277 11.6739C0.785863 11.7346 0.683105 11.8287 0.611904 11.9454C0.540703 12.0621 0.503967 12.1966 0.505911 12.3332Z" fill="#333333"/>
<path d="M1.26961 5.33907C1.53129 5.46679 1.81433 5.54482 2.10446 5.56917C2.26357 5.58097 2.42276 5.59314 2.58204 5.60566C3.31719 5.66254 4.07543 5.72128 4.82654 5.72128C4.8846 5.72128 4.94276 5.7213 5.00081 5.72023C6.4207 5.70239 7.86381 5.66924 9.25945 5.63717C11.1111 5.59478 13.0258 5.55089 14.9085 5.54217C17.6035 5.5297 20.3108 5.2214 22.9292 4.9233L23.0132 4.9138C23.1782 4.88215 23.3359 4.82005 23.4783 4.73067C23.5736 4.68023 23.6817 4.62334 23.8144 4.56189C23.8381 4.55098 23.8583 4.53355 23.8725 4.51165C23.8867 4.48974 23.8943 4.46426 23.8946 4.43815C23.895 4.41204 23.8879 4.38638 23.8742 4.36416C23.8604 4.34194 23.8407 4.32405 23.8172 4.3126C23.6805 4.24552 23.5654 4.18113 23.4639 4.12371C23.3047 4.01646 23.1258 3.9419 22.9374 3.90436L22.423 3.84239C21.4235 3.72164 20.3901 3.5962 19.3674 3.55353C13.8578 3.32332 8.26321 3.53946 2.85302 3.74861L1.88206 3.78605C1.73522 3.79184 1.58934 3.81255 1.4467 3.84789C1.28352 3.87864 1.13443 3.96069 1.02109 4.08211C0.907751 4.20353 0.836046 4.35799 0.816506 4.52298C0.791366 4.68997 0.822212 4.8606 0.904168 5.00823C0.986124 5.15586 1.11463 5.27219 1.26961 5.33907Z" fill="#333333"/>
</g>
<defs>
<clipPath id="clip0_210_2926">
<rect width="24" height="17.1724" fill="white" transform="translate(0 3.41357)"/>
</clipPath>
</defs>
</svg>
