<svg width="20" height="20" viewBox="0 0 20 20" fill="none" xmlns="http://www.w3.org/2000/svg">
<path d="M14.45 4.54984C14.2522 4.54984 14.0589 4.60849 13.8944 4.71837C13.73 4.82825 13.6018 4.98443 13.5261 5.16715C13.4505 5.34988 13.4306 5.55095 13.4692 5.74493C13.5078 5.93891 13.6031 6.11709 13.7429 6.25694C13.8828 6.3968 14.0609 6.49204 14.2549 6.53062C14.4489 6.56921 14.65 6.5494 14.8327 6.47372C15.0154 6.39803 15.1716 6.26986 15.2815 6.10541C15.3914 5.94096 15.45 5.74762 15.45 5.54984C15.45 5.28462 15.3447 5.03027 15.1571 4.84273C14.9696 4.65519 14.7152 4.54984 14.45 4.54984ZM18.2834 6.5665C18.2671 5.87509 18.1376 5.19101 17.9 4.5415C17.6881 3.98578 17.3583 3.48257 16.9334 3.0665C16.5207 2.63936 16.0163 2.31165 15.4584 2.10817C14.8106 1.8633 14.1257 1.73085 13.4334 1.7165C12.55 1.6665 12.2667 1.6665 10 1.6665C7.73335 1.6665 7.45002 1.6665 6.56669 1.7165C5.87431 1.73085 5.18947 1.8633 4.54169 2.10817C3.98475 2.31371 3.4808 2.64114 3.06669 3.0665C2.63954 3.47915 2.31183 3.98354 2.10835 4.5415C1.86349 5.18929 1.73103 5.87413 1.71669 6.5665C1.66669 7.44984 1.66669 7.73317 1.66669 9.99984C1.66669 12.2665 1.66669 12.5498 1.71669 13.4332C1.73103 14.1255 1.86349 14.8104 2.10835 15.4582C2.31183 16.0161 2.63954 16.5205 3.06669 16.9332C3.4808 17.3585 3.98475 17.686 4.54169 17.8915C5.18947 18.1364 5.87431 18.2688 6.56669 18.2832C7.45002 18.3332 7.73335 18.3332 10 18.3332C12.2667 18.3332 12.55 18.3332 13.4334 18.2832C14.1257 18.2688 14.8106 18.1364 15.4584 17.8915C16.0163 17.688 16.5207 17.3603 16.9334 16.9332C17.3602 16.5187 17.6903 16.015 17.9 15.4582C18.1376 14.8087 18.2671 14.1246 18.2834 13.4332C18.2834 12.5498 18.3334 12.2665 18.3334 9.99984C18.3334 7.73317 18.3334 7.44984 18.2834 6.5665ZM16.7834 13.3332C16.7773 13.8621 16.6815 14.3863 16.5 14.8832C16.367 15.2458 16.1533 15.5735 15.875 15.8415C15.6047 16.1169 15.2777 16.3302 14.9167 16.4665C14.4198 16.648 13.8957 16.7438 13.3667 16.7498C12.5334 16.7915 12.225 16.7998 10.0334 16.7998C7.84169 16.7998 7.53335 16.7998 6.70002 16.7498C6.15076 16.7601 5.60385 16.6755 5.08335 16.4998C4.73817 16.3566 4.42615 16.1438 4.16669 15.8748C3.89009 15.6071 3.67906 15.2792 3.55002 14.9165C3.34657 14.4125 3.23372 13.8765 3.21669 13.3332C3.21669 12.4998 3.16669 12.1915 3.16669 9.99984C3.16669 7.80817 3.16669 7.49984 3.21669 6.6665C3.22042 6.12572 3.31915 5.58979 3.50835 5.08317C3.65506 4.73143 3.88024 4.41789 4.16669 4.1665C4.41986 3.87998 4.73276 3.65242 5.08335 3.49984C5.59131 3.31654 6.12668 3.22074 6.66669 3.2165C7.50002 3.2165 7.80835 3.1665 10 3.1665C12.1917 3.1665 12.5 3.1665 13.3334 3.2165C13.8623 3.22257 14.3864 3.31838 14.8834 3.49984C15.262 3.64038 15.6019 3.86888 15.875 4.1665C16.1481 4.42249 16.3615 4.73545 16.5 5.08317C16.6852 5.59062 16.7811 6.12632 16.7834 6.6665C16.825 7.49984 16.8334 7.80817 16.8334 9.99984C16.8334 12.1915 16.825 12.4998 16.7834 13.3332ZM10 5.72484C9.15486 5.72648 8.32916 5.97861 7.62723 6.44935C6.92531 6.9201 6.37867 7.58833 6.05638 8.36963C5.73409 9.15093 5.65062 10.0102 5.81652 10.8389C5.98241 11.6677 6.39022 12.4286 6.98842 13.0257C7.58662 13.6227 8.34836 14.029 9.1774 14.1933C10.0064 14.3576 10.8656 14.2724 11.6462 13.9486C12.4269 13.6248 13.0941 13.0769 13.5635 12.374C14.0328 11.6712 14.2834 10.845 14.2834 9.99984C14.2845 9.43742 14.1744 8.88034 13.9594 8.36063C13.7444 7.84093 13.4288 7.36884 13.0307 6.97155C12.6327 6.57425 12.16 6.25957 11.6399 6.04561C11.1197 5.83165 10.5624 5.72264 10 5.72484ZM10 12.7748C9.45118 12.7748 8.91466 12.6121 8.45831 12.3072C8.00197 12.0022 7.64629 11.5688 7.43625 11.0618C7.22622 10.5547 7.17127 9.99676 7.27834 9.45846C7.38542 8.92016 7.64971 8.42571 8.0378 8.03762C8.42589 7.64952 8.92035 7.38523 9.45864 7.27816C9.99694 7.17108 10.5549 7.22604 11.062 7.43607C11.569 7.6461 12.0024 8.00178 12.3073 8.45813C12.6123 8.91448 12.775 9.45099 12.775 9.99984C12.775 10.3643 12.7032 10.7251 12.5638 11.0618C12.4243 11.3985 12.2199 11.7044 11.9622 11.9621C11.7046 12.2197 11.3986 12.4241 11.062 12.5636C10.7253 12.7031 10.3644 12.7748 10 12.7748Z" fill="#333333"/>
</svg>
