<svg width="20" height="20" viewBox="0 0 20 20" fill="none" xmlns="http://www.w3.org/2000/svg">
<path d="M17.0583 1.66662H2.94167C2.78299 1.66442 2.62543 1.69349 2.47798 1.75219C2.33053 1.81089 2.19609 1.89805 2.08234 2.00871C1.96858 2.11937 1.87774 2.25136 1.815 2.39713C1.75226 2.5429 1.71885 2.6996 1.71667 2.85829V17.1416C1.71885 17.3003 1.75226 17.457 1.815 17.6028C1.87774 17.7486 1.96858 17.8805 2.08234 17.9912C2.19609 18.1019 2.33053 18.189 2.47798 18.2477C2.62543 18.3064 2.78299 18.3355 2.94167 18.3333H17.0583C17.217 18.3355 17.3746 18.3064 17.522 18.2477C17.6695 18.189 17.8039 18.1019 17.9177 17.9912C18.0314 17.8805 18.1223 17.7486 18.185 17.6028C18.2478 17.457 18.2812 17.3003 18.2833 17.1416V2.85829C18.2812 2.6996 18.2478 2.5429 18.185 2.39713C18.1223 2.25136 18.0314 2.11937 17.9177 2.00871C17.8039 1.89805 17.6695 1.81089 17.522 1.75219C17.3746 1.69349 17.217 1.66442 17.0583 1.66662V1.66662ZM6.74167 15.6166H4.24167V8.11662H6.74167V15.6166ZM5.49167 7.06662C5.14689 7.06662 4.81623 6.92966 4.57244 6.68586C4.32864 6.44206 4.19167 6.1114 4.19167 5.76662C4.19167 5.42184 4.32864 5.09118 4.57244 4.84738C4.81623 4.60358 5.14689 4.46662 5.49167 4.46662C5.67475 4.44586 5.86016 4.464 6.03574 4.51986C6.21132 4.57571 6.37312 4.66803 6.51056 4.79076C6.64799 4.91348 6.75795 5.06385 6.83323 5.23202C6.90852 5.40019 6.94744 5.58237 6.94744 5.76662C6.94744 5.95087 6.90852 6.13305 6.83323 6.30122C6.75795 6.46939 6.64799 6.61976 6.51056 6.74249C6.37312 6.86521 6.21132 6.95753 6.03574 7.01338C5.86016 7.06924 5.67475 7.08738 5.49167 7.06662V7.06662ZM15.7583 15.6166H13.2583V11.5916C13.2583 10.5833 12.9 9.92495 11.9917 9.92495C11.7106 9.92701 11.4368 10.0152 11.2074 10.1776C10.9779 10.34 10.8037 10.5688 10.7083 10.8333C10.6431 11.0292 10.6149 11.2354 10.625 11.4416V15.6083H8.12501C8.12501 15.6083 8.12501 8.79162 8.12501 8.10829H10.625V9.16662C10.8521 8.77254 11.1824 8.44789 11.5804 8.22762C11.9783 8.00736 12.4288 7.89983 12.8833 7.91662C14.55 7.91662 15.7583 8.99162 15.7583 11.3V15.6166Z" fill="#333333"/>
</svg>
