<svg width="285" height="285" viewBox="0 0 285 285" fill="none" xmlns="http://www.w3.org/2000/svg">
<path d="M138.591 21.9754L133.5 20L127.405 19.8004L114.976 23.5291L102.237 32.5401L92.2933 46.2122L87.3219 57.7085L84.5256 68.8945V80.0806L87.9433 87.5379L91.0506 84.7416L94.7793 87.5379L98.508 67.3408L103.169 65.1658L108.762 57.0872L122.123 64.5445L140.455 72.9342L156.5 79.5L177.431 87.5379L183.645 90.024H187.685L190.482 87.849L195.453 76.6629V60.5056L190.5 48.5L181.159 35.0269C172.459 27.8806 165.934 22.9085 165.934 22.9085C165.934 22.9085 152.884 17.6262 145.737 19.8012L138.591 21.9754Z" fill="#D3A52A"/>
<path d="M108.068 56.2445C107.887 56.9098 107.661 57.5625 107.393 58.198L107.492 57.9631C107.068 58.9638 106.543 59.9197 105.928 60.8152C105.752 61.072 105.568 61.3234 105.378 61.5693L105.531 61.3705C104.85 62.2495 104.083 63.0617 103.244 63.7898C103.005 63.9972 102.76 64.1975 102.51 64.3907L102.709 64.2375C101.849 64.9013 100.925 65.4825 99.9501 65.9632C99.6712 66.1007 99.3885 66.2303 99.1018 66.3513L99.3366 66.2523C98.7271 66.5084 98.1026 66.7267 97.4656 66.9035C97.2276 66.9694 97.0038 67.1415 96.8789 67.3543C96.754 67.5672 96.7037 67.8751 96.7799 68.1107C96.8561 68.3464 97.0038 68.5773 97.2308 68.6975C97.4578 68.8177 97.7272 68.8687 97.9872 68.7965C99.1143 68.4838 100.211 68.0432 101.248 67.5028C102.285 66.9624 103.256 66.301 104.169 65.5658C105.02 64.8801 105.803 64.1111 106.505 63.2737C107.257 62.3767 107.934 61.4153 108.495 60.3879C109.055 59.3628 109.516 58.2726 109.852 57.1533C109.89 57.0245 109.927 56.8956 109.963 56.766C110.029 56.5194 109.992 56.2303 109.864 56.0096C109.744 55.8062 109.511 55.6114 109.277 55.5588C109.026 55.5014 108.744 55.514 108.52 55.6577C108.297 55.8015 108.138 55.9931 108.07 56.2445H108.068Z" fill="#333333"/>
<path d="M96.8089 67.3817C95.8381 74.5539 94.8578 81.7419 94.6166 88.9832C94.392 95.7305 94.7902 102.519 95.904 109.18C96.904 115.161 98.544 121.036 101.003 126.585C103.417 132.032 106.687 137.177 110.867 141.444C114.84 145.499 119.642 148.712 124.895 150.857C130.149 153.002 135.603 153.944 141.097 153.414C144.041 153.13 146.907 152.426 149.648 151.315C152.642 150.102 155.454 148.516 158.157 146.756C160.859 144.996 163.551 143.126 166.109 141.141C167.356 140.173 168.553 139.129 169.57 137.916C170.586 136.704 171.482 135.231 172.192 133.735C173.638 130.688 174.786 127.472 175.822 124.265C176.854 121.071 177.724 117.823 178.427 114.54C179.853 107.891 180.615 101.091 180.675 94.2907C180.69 92.6506 180.662 91.0113 180.596 89.3728C180.575 88.8426 180.16 88.391 179.614 88.391C179.099 88.391 178.611 88.8403 178.632 89.3728C178.899 95.9677 178.518 102.592 177.458 109.108C176.397 115.633 174.689 122.054 172.355 128.239C171.268 131.122 170.15 134.203 168.133 136.583C166.131 138.948 163.491 140.681 160.981 142.454C155.971 145.993 150.691 149.442 144.642 150.859C139.501 152.065 134.095 151.715 129.037 150.23C123.893 148.721 119.073 146.063 114.988 142.597C110.633 138.902 107.158 134.289 104.482 129.261C101.806 124.233 99.8479 118.493 98.592 112.78C97.2339 106.599 96.618 100.267 96.5308 93.9428C96.4334 86.9009 97.1333 79.8944 98.0335 72.9186C98.2495 71.2455 98.4749 69.5732 98.7011 67.9009C98.7718 67.3762 99.0593 67.154 98.5 67C98.0429 66.8743 96.8788 66.8499 96.8073 67.3786L96.8089 67.3817Z" fill="#333333"/>
<path d="M108.684 57.5C113.419 60.4503 118.066 62.9501 123.062 65.4299C128.065 67.9136 133.155 70.2189 138.264 72.4733C143.554 74.8077 148.857 77.11 154.154 79.4248C159.512 81.7655 164.853 84.1487 170.233 86.4376C175.344 88.6118 180.571 90.5786 186.113 91.2769C186.787 91.3617 187.464 91.4253 188.143 91.4693C188.673 91.5039 189.125 90.9933 189.125 90.4875C189.125 89.9274 188.674 89.5402 188.143 89.5056C182.75 89.1545 177.576 87.3684 172.616 85.3245C167.333 83.1472 162.123 80.7782 156.887 78.4901C151.555 76.1603 146.22 73.8377 140.892 71.4977C135.823 69.2717 130.768 67.0103 125.79 64.587C120.82 62.1685 115.924 59.5875 111.19 56.7307C110.596 56.3717 110.265 56.171 109.675 55.8034C108.6 55.1333 107.613 56.8323 108.684 57.5Z" fill="#333333"/>
<path d="M187.592 90.6014C187.762 92.7536 187.754 94.9192 187.567 97.0706C187.514 97.677 187.446 98.2826 187.365 98.8859L187.401 98.6251C187.142 100.542 186.763 102.455 186.155 104.293C185.985 104.806 185.796 105.313 185.587 105.811L185.686 105.577C185.07 107.032 184.267 108.402 183.303 109.654L183.456 109.455C182.483 110.714 181.352 111.846 180.093 112.82L180.292 112.667C179.581 113.215 178.831 113.711 178.048 114.149C177.6 114.401 176.716 115.56 177 116C177.284 116.44 178.559 116.113 179.039 115.844C180.53 115.01 181.915 113.965 183.134 112.769C184.353 111.574 185.424 110.207 186.291 108.736C187.248 107.112 187.944 105.34 188.434 103.523C188.972 101.531 189.3 99.4766 189.498 97.4249C189.692 95.4101 189.73 93.3797 189.609 91.3586C189.594 91.1057 189.576 90.8535 189.556 90.6014C189.537 90.3493 189.46 90.0995 189.269 89.907C189.098 89.7366 188.819 89.6086 188.574 89.6196C188.33 89.6306 188.057 89.7146 187.88 89.907C187.703 90.0995 187.572 90.3438 187.592 90.6014Z" fill="#333333"/>
<path d="M95.9559 87.6794C95.7336 86.9285 95.3378 86.2514 94.8115 85.6733C94.2852 85.0952 93.6223 84.6687 92.902 84.3702C91.5101 83.7929 89.8818 83.9759 88.5858 84.715C87.8985 85.107 87.3172 85.6584 86.875 86.3127C86.4328 86.967 86.1633 87.7635 86.029 88.5435C85.8884 89.3619 85.8476 90.1867 85.8264 91.0154C85.8052 91.8441 85.7832 92.6916 85.7706 93.5297C85.718 96.9081 85.8052 100.314 86.4995 103.633C87.0816 106.413 88.1451 109.123 89.8088 111.439C90.6115 112.557 91.525 113.598 92.587 114.477C93.689 115.39 94.8845 116.119 96.2104 116.658C96.5058 116.778 96.8058 116.885 97.1098 116.98C97.6 117.133 98.2024 116.799 98.3179 116.295C98.4396 115.76 98.1569 115.251 97.6322 115.086C97.285 114.977 96.9433 114.852 96.6071 114.712L96.842 114.811C95.8719 114.4 94.9647 113.859 94.1305 113.216L94.3292 113.369C93.345 112.606 92.4723 111.71 91.7096 110.727L91.8628 110.926C90.9116 109.693 90.1347 108.334 89.5268 106.901L89.6257 107.136C88.8049 105.187 88.3211 103.113 88.0383 101.022L88.0736 101.282C87.6487 98.0926 87.695 94.8658 87.7752 91.6555C87.7964 90.8002 87.8019 89.9408 87.915 89.0917L87.8796 89.3525C87.955 88.8121 88.0783 88.2803 88.2889 87.776L88.1899 88.0109C88.3266 87.6936 88.4954 87.3943 88.7044 87.1186L88.5512 87.3173C88.7656 87.0416 89.0115 86.7973 89.2864 86.5829L89.0877 86.7361C89.3775 86.5146 89.6909 86.3315 90.0263 86.187L89.7915 86.286C90.1418 86.1391 90.5063 86.0386 90.8817 85.9867L90.6209 86.0221C90.9673 85.9781 91.3137 85.9773 91.6601 86.0236L91.3994 85.9883C91.7379 86.0378 92.0662 86.1305 92.382 86.2624L92.1471 86.1635C92.4755 86.3048 92.7826 86.4855 93.0669 86.7015L92.8682 86.5483C93.162 86.7769 93.4251 87.0393 93.6537 87.3338L93.5005 87.1351C93.7071 87.4077 93.8799 87.7014 94.015 88.0156L93.916 87.7808C93.9734 87.9182 94.0229 88.0572 94.0653 88.2002C94.2114 88.6919 94.762 89.0517 95.2734 88.8859C95.7847 88.7202 96.1154 88.2057 95.9591 87.6779L95.9559 87.6794Z" fill="#333333"/>
<path d="M139.758 21.1759C134.431 17.3561 127.258 18.1369 121.346 19.9639C115.149 21.8789 109.235 24.8818 104.189 28.9702C101.623 31.0494 99.3367 33.4302 97.3549 36.071C95.1673 38.9859 93.378 42.1726 91.6319 45.3632C88.1569 51.713 84.8414 58.3158 83.3568 65.4535C81.9925 72.0146 82.2517 79.08 85.1642 85.2028C85.5083 85.9262 85.8916 86.6292 86.3095 87.3118C86.586 87.7635 87.1884 87.9355 87.6526 87.6637C88.1169 87.3919 88.2826 86.7746 88.0045 86.3205C87.1546 84.9326 86.5011 83.5494 85.9898 82.0845C85.4572 80.5583 85.0763 78.981 84.8312 77.3833C84.7731 77.0047 84.7534 76.8539 84.7087 76.4502C84.66 76.0135 84.6215 75.576 84.5916 75.1377C84.5374 74.3318 84.5146 73.5243 84.5209 72.7168C84.5272 71.9093 84.5633 71.0979 84.6277 70.2912C84.6568 69.9244 84.6914 69.5576 84.7322 69.1924C84.7566 68.9732 84.7833 68.7541 84.8108 68.5349C84.8123 68.5255 84.8359 68.3448 84.8194 68.4681C84.839 68.3228 84.8602 68.1767 84.8822 68.0314C85.9206 61.1317 88.8316 54.7788 92.0733 48.6779C93.737 45.547 95.4312 42.4106 97.3808 39.4454C99.1819 36.7064 101.256 34.2125 103.686 31.988C104.855 30.9166 106.019 29.9709 107.238 29.0888C108.457 28.2067 109.82 27.3199 111.173 26.5344C113.908 24.9462 116.66 23.6839 119.566 22.633C121.018 22.1083 122.49 21.637 123.991 21.2662C124.742 21.0801 125.5 20.9183 126.264 20.7847C127.027 20.6512 127.573 20.5758 128.402 20.5043C129.161 20.4391 129.924 20.4077 130.686 20.4179C131.062 20.4234 131.438 20.4383 131.815 20.465C131.984 20.4768 132.154 20.4909 132.323 20.5082C132.424 20.5184 132.526 20.5287 132.626 20.5404C132.626 20.5404 132.943 20.5805 132.768 20.5569C133.499 20.6567 134.224 20.8091 134.933 21.0117C135.642 21.2144 136.294 21.4602 136.85 21.7289C137.523 22.0525 137.894 22.0648 138.5 22.5C138.931 22.8095 139.75 22.9273 140 22.5C140.289 22.0059 140.192 21.4854 139.76 21.1759H139.758Z" fill="#333333"/>
<path d="M190.027 90.3901C193.462 84.129 195.882 77.2294 196.444 70.0784C196.72 66.5696 196.504 63.0224 195.754 59.5812C195.02 56.2075 193.766 52.958 192.213 49.8813C189.101 43.7192 184.781 38.2138 180.356 32.9495C179.148 31.512 177.88 30.1327 176.452 28.9089C175.1 27.7511 173.651 26.7072 172.145 25.7599C169.088 23.8371 165.805 22.2001 162.471 20.8169C159.084 19.4125 155.527 18.5579 151.855 18.4196C148.301 18.2861 144.693 18.799 141.324 19.9442C140.472 20.2333 139.639 20.5679 138.816 20.9292C138.33 21.1429 138.218 21.8522 138.464 22.2724C138.757 22.7735 139.32 22.8387 139.807 22.6243C146.026 19.8932 153.197 19.6536 159.629 21.8318C162.958 22.9597 166.168 24.5715 169.222 26.3019C172.207 27.9939 174.969 29.9442 177.315 32.457C178.532 33.7601 179.654 35.1504 180.778 36.532C181.814 37.8053 182.826 39.0793 183.799 40.3668C185.832 43.0586 187.749 45.8463 189.405 48.7879C191.017 51.6541 192.327 54.558 193.249 57.7078C194.172 60.8576 194.637 64.2053 194.594 67.5923C194.508 74.3577 192.521 81.0617 189.522 87.117C189.142 87.8852 188.744 88.6448 188.332 89.3965C188.076 89.8615 188.218 90.4671 188.683 90.7397C189.149 91.0122 189.771 90.8535 190.027 90.3878V90.3901Z" fill="#333333"/>
<path d="M107.673 156.583C97.2174 152.918 86.4634 158.183 77.5144 163.28C72.928 165.891 68.3565 168.634 63.3694 170.424C58.4225 172.2 53.1197 172.888 48.3628 175.205C43.9029 177.377 40.4397 181.091 37.8036 185.229C35.0348 189.574 33.064 194.419 31.5127 199.318C28.3166 209.411 26.9161 219.969 23.7553 230.073C20.5474 240.327 15.6499 250.127 14.0153 260.829C13.8079 262.185 13.6501 263.548 13.5511 264.916C13.5126 265.446 14.0295 265.898 14.5329 265.898C15.0961 265.898 15.4763 265.447 15.5148 264.916C16.2854 254.259 20.8883 244.414 24.3656 234.458C26.0874 229.526 27.418 224.495 28.5797 219.405C29.7461 214.292 30.7971 209.149 32.167 204.085C33.5015 199.152 35.1432 194.281 37.4918 189.731C39.622 185.604 42.3665 181.591 46.1611 178.821C50.3611 175.756 55.4722 174.787 60.3791 173.42C65.4439 172.01 70.1128 169.725 74.6804 167.155C79.1985 164.613 83.6435 161.846 88.4766 159.926C93.1997 158.049 98.4553 156.779 103.554 157.572C104.78 157.762 105.981 158.067 107.152 158.478C108.323 158.889 108.861 157.001 107.674 156.584L107.673 156.583Z" fill="#333333"/>
<path d="M109.26 139.105C109.504 142.365 109.777 145.624 109.989 148.885C110.083 150.325 110.055 151.711 109.429 152.951C108.803 154.192 107.902 155.349 107.269 156.627C104.7 161.811 104.75 167.875 106.184 173.375C106.955 176.335 108.114 179.182 109.405 181.95C110.611 184.535 111.915 187.083 113.287 189.585C115.789 194.15 118.731 198.679 122.837 201.967C125.13 203.803 127.69 205.124 130.447 206.124C133.167 207.111 135.986 207.885 138.849 208.305C141.775 208.734 144.734 208.808 147.65 208.255C150.365 207.741 152.947 206.618 155.175 204.984C159.603 201.736 162.697 196.993 165.345 192.264C168.23 187.113 170.545 181.621 172.141 175.934C172.926 173.137 173.55 170.284 173.95 167.406C174.345 164.561 174.517 161.583 173.639 158.803C173.19 157.38 172.456 156.127 171.585 154.926C170.714 153.725 169.918 152.657 169.331 151.361C168.249 148.976 167.974 146.235 167.93 143.569C167.907 142.2 167.949 140.831 167.997 139.464C168.016 138.934 167.532 138.482 167.015 138.482C166.468 138.482 166.052 138.932 166.033 139.464C165.934 142.283 165.879 145.109 166.321 147.905C166.53 149.226 166.866 150.526 167.381 151.762C167.937 153.099 168.687 154.276 169.541 155.441C170.339 156.53 171.17 157.707 171.602 158.901C172.078 160.222 172.258 161.431 172.302 162.789C172.391 165.614 171.906 168.258 171.326 171.017C170.147 176.628 168.253 182.078 165.774 187.201C164.535 189.76 163.156 192.253 161.641 194.659C160.237 196.887 158.816 198.879 157.011 200.766C155.221 202.635 153.314 204.128 150.93 205.203C148.505 206.297 145.798 206.716 143.112 206.697C140.291 206.677 137.637 206.209 134.897 205.471C132.13 204.725 129.391 203.807 126.907 202.39C126.337 202.065 125.782 201.713 125.244 201.338C124.694 200.954 124.358 200.696 123.863 200.284C122.884 199.468 121.97 198.576 121.116 197.631C119.428 195.764 118.04 193.774 116.699 191.573C115.334 189.333 114.113 187.01 112.923 184.673C111.587 182.049 110.303 179.405 109.285 176.658C108.773 175.276 108.326 173.87 107.972 172.44C107.8 171.744 107.649 171.042 107.525 170.336C107.401 169.629 107.334 169.13 107.267 168.41C107.013 165.678 107.162 163.047 107.889 160.459C108.257 159.149 108.696 158.054 109.356 156.878C110.062 155.62 110.948 154.481 111.488 153.133C112.067 151.685 112.041 150.107 111.931 148.578C111.816 146.97 111.691 145.362 111.571 143.754C111.454 142.205 111.116 141.049 111 139.5C110.961 138.971 110.559 138.5 110 138.5C109.5 138.5 109.219 138.575 109.259 139.107L109.26 139.105Z" fill="#333333"/>
<path d="M171.551 155.994C173.872 156.345 175.941 157.413 177.997 158.489C180.254 159.67 182.511 160.853 184.768 162.034C186.992 163.199 189.2 164.411 191.458 165.509C193.655 166.578 195.862 167.306 198.285 167.641C199.493 167.809 200.708 167.948 201.891 168.249C203.075 168.551 204.118 168.945 205.186 169.409C207.488 170.409 209.752 171.503 212.031 172.557C216.718 174.724 221.405 176.892 226.092 179.059C228.42 180.136 230.748 181.212 233.077 182.289C235.141 183.243 237.237 184.16 239.195 185.324C241.03 186.415 242.685 187.756 243.946 189.493C245.295 191.353 246.356 193.424 247.461 195.434C252.102 203.878 256.394 212.514 260.322 221.312C264.242 230.09 267.792 239.033 270.968 248.107C271.365 249.24 271.755 250.375 272.14 251.512C272.543 252.703 274.441 252.191 274.034 250.99C270.894 241.723 267.367 232.59 263.47 223.616C259.594 214.692 255.347 205.928 250.741 197.358C249.604 195.241 248.459 193.125 247.258 191.042C246.108 189.047 244.798 187.13 243.025 185.634C241.346 184.217 239.433 183.137 237.463 182.18C235.218 181.088 232.935 180.069 230.669 179.021C225.951 176.839 221.234 174.657 216.516 172.476C214.188 171.399 211.86 170.323 209.532 169.246C207.204 168.169 205.012 167.047 202.597 166.404C200.219 165.77 197.725 165.779 195.373 165.021C193.095 164.287 190.992 163.077 188.88 161.971C186.593 160.774 184.306 159.577 182.019 158.38C179.831 157.234 177.666 155.996 175.38 155.053C174.314 154.614 173.217 154.274 172.076 154.101C171.552 154.022 170.152 153.946 170 154.5C169.873 154.964 171.027 155.915 171.554 155.995L171.551 155.994Z" fill="#333333"/>
</svg>
