<svg width="17" height="9" viewBox="0 0 17 9" fill="none" xmlns="http://www.w3.org/2000/svg">
<path d="M7.71547 4.47084C5.7867 4.45522 3.85793 4.4427 1.92915 4.4216C1.54472 4.41731 1.15972 4.38713 0.776839 4.34949C0.713495 4.34261 0.6537 4.31676 0.60528 4.27535C0.55686 4.23393 0.522066 4.17887 0.505448 4.11735C0.474004 4.01887 0.58332 3.87917 0.713879 3.85863C0.840499 3.83872 0.96648 3.80784 1.09373 3.80017C1.90642 3.75093 2.71905 3.68122 3.53251 3.66652C5.20376 3.63648 6.87549 3.62889 8.54709 3.62699C10.133 3.62516 11.719 3.64499 13.3049 3.64865C13.5596 3.64928 13.8143 3.61721 14.0686 3.59448C14.0854 3.59032 14.101 3.58199 14.1138 3.57025C14.1266 3.55851 14.1363 3.54375 14.1419 3.52731C14.1464 3.48806 14.1348 3.42179 14.1087 3.40772C13.6214 3.1428 13.14 2.8641 12.6389 2.62767C11.4731 2.07765 10.3794 1.40318 9.28655 0.72647C9.10696 0.615255 8.91871 0.502284 8.84626 0.281613C8.8331 0.241446 8.81257 0.17265 8.82931 0.159214C8.88926 0.103304 8.96213 0.0631074 9.0414 0.0422254C9.12582 0.0322609 9.21135 0.0459486 9.28845 0.0817598C9.56152 0.205425 9.83263 0.334512 10.0983 0.473231C11.9973 1.46467 13.8956 2.4572 15.7933 3.45084C16.5102 3.82367 16.8508 4.18517 15.9903 5.00489C15.7424 5.24118 15.4916 5.47711 15.2221 5.68723C13.9719 6.66268 12.7172 7.63216 11.4579 8.59569C11.2847 8.71995 11.1021 8.8305 10.9118 8.92632C10.7876 8.99371 10.6633 8.95375 10.5561 8.87292C10.4382 8.78394 10.3649 8.52528 10.4056 8.41154C10.496 8.159 10.6761 7.97371 10.8694 7.80594C11.6141 7.16004 12.3626 6.51877 13.1152 5.88216C13.6042 5.46614 14.0984 5.05624 14.5867 4.63938C14.6108 4.61884 14.612 4.55497 14.6022 4.51656C14.5958 4.49994 14.5854 4.48513 14.572 4.47339C14.5586 4.46165 14.5426 4.45334 14.5252 4.44917C14.27 4.43243 14.0144 4.41112 13.759 4.41245C11.7444 4.4231 9.72983 4.43637 7.71526 4.45226L7.71547 4.47084Z" fill="black"/>
</svg>
