<svg width="18" height="18" viewBox="0 0 18 18" fill="none" xmlns="http://www.w3.org/2000/svg">
<path d="M8.59354 10.6131C7.028 12.0146 5.49703 13.3722 3.98139 14.7467C3.10334 15.5429 2.25674 16.3737 1.38074 17.1721C1.14742 17.3902 0.879314 17.5675 0.587476 17.6966C0.443565 17.7571 0.132801 17.6966 0.0619305 17.586C-0.0318404 17.439 -0.00411612 17.1783 0.0467468 16.9866C0.0837489 16.8468 0.234409 16.731 0.348067 16.6188C2.50954 14.4906 4.672 12.3637 6.8354 10.2383C7.07815 9.99988 7.32787 9.76875 7.60677 9.50402C6.66135 8.45623 5.71445 7.44518 4.81049 6.39654C3.36777 4.72215 1.954 3.02286 0.528271 1.33397C0.476444 1.2726 0.431862 1.20541 0.379553 1.14404C0.13006 0.849103 -0.0458349 0.531218 0.23825 0.173457C0.450982 -0.0944109 0.959534 -0.0544026 1.31365 0.310004C2.19555 1.21728 3.05464 2.14653 3.90653 3.08292C5.46207 4.79174 7.00547 6.51168 8.55546 8.22557C8.62181 8.28792 8.69236 8.3456 8.76662 8.39823C9.96515 7.25269 11.1504 6.11089 12.3456 4.97889C13.7316 3.66673 15.1226 2.35974 16.5184 1.0579C17.042 0.568561 17.4618 0.480361 17.7831 0.765869C18.1161 1.06165 18.0851 1.5558 17.5541 2.08562C16.1183 3.51823 14.6479 4.91606 13.1789 6.31545C12.0598 7.38185 10.9228 8.42988 9.73179 9.54376C10.6996 10.5448 11.6253 11.5426 12.5958 12.4942C13.528 13.4082 14.5122 14.2692 15.4627 15.1644C15.8343 15.5013 16.1822 15.8634 16.5041 16.2483C16.7638 16.5713 16.8021 16.9722 16.483 17.2907C16.1685 17.6048 15.8044 17.4938 15.501 17.256C14.9207 16.8248 14.3645 16.362 13.8348 15.8698C12.2133 14.2818 10.6205 12.6647 9.01721 11.058C8.89041 10.9312 8.76927 10.798 8.59354 10.6131Z" fill="#333333"/>
</svg>
