<svg width="20" height="20" viewBox="0 0 20 20" fill="none" xmlns="http://www.w3.org/2000/svg">
<rect width="20" height="20" rx="10" fill="#333333"/>
<path fill-rule="evenodd" clip-rule="evenodd" d="M13.0927 19.512C12.1187 19.8288 11.0792 20 9.99997 20C8.92002 20 7.87988 19.8286 6.9053 19.5114C7.3555 19.5653 7.52185 19.2722 7.52185 19.0191C7.52185 18.909 7.51997 18.7146 7.51745 18.4547C7.51454 18.1539 7.51078 17.7652 7.5081 17.3174C4.72622 17.9221 4.13935 15.9758 4.13935 15.9758C3.68497 14.82 3.02935 14.5123 3.02935 14.5123C2.12122 13.8912 3.0981 13.9038 3.0981 13.9038C4.10122 13.9745 4.62935 14.9351 4.62935 14.9351C5.52185 16.4644 6.96997 16.0228 7.53997 15.7663C7.6306 15.1197 7.88935 14.6786 8.17497 14.4285C5.95435 14.1759 3.61997 13.3178 3.61997 9.48325C3.61997 8.39057 4.00935 7.49755 4.64935 6.79765C4.54622 6.54441 4.2031 5.52742 4.74685 4.14958C4.74685 4.14958 5.58685 3.88061 7.49685 5.17529C8.29497 4.9532 9.14997 4.84263 10.0006 4.83811C10.85 4.84247 11.7056 4.9532 12.5044 5.17529C14.4131 3.88061 15.2512 4.14958 15.2512 4.14958C15.7969 5.52742 15.4537 6.54441 15.3506 6.79765C15.9919 7.49755 16.3787 8.39057 16.3787 9.48325C16.3787 13.3271 14.0406 14.1734 11.8131 14.421C12.1718 14.73 12.4918 15.3404 12.4918 16.2742C12.4918 17.1688 12.4863 17.9475 12.4826 18.4636C12.4807 18.7193 12.4793 18.9105 12.4793 19.0193C12.4793 19.2735 12.6417 19.5673 13.0927 19.512Z" fill="#FFFDFA"/>
</svg>
