<svg width="72" height="36" viewBox="0 0 72 36" fill="none" xmlns="http://www.w3.org/2000/svg">
<path d="M22.1567 25.5007C22.1567 24.8317 21.8909 24.19 21.4178 23.7169C20.9448 23.2439 20.3031 22.9781 19.6341 22.9781H12.0784C10.7419 22.9781 9.46014 22.4472 8.51511 21.5021C7.57008 20.5571 7.03918 19.2754 7.03918 17.9389C7.03918 16.6024 7.57008 15.3207 8.51511 14.3757C9.46014 13.4306 10.7419 12.8997 12.0784 12.8997H19.6341C20.3028 12.8997 20.9443 12.6341 21.4173 12.1614C21.8903 11.6886 22.1563 11.0474 22.1567 10.3786C22.1567 9.70956 21.8909 9.06791 21.4178 8.59483C20.9448 8.12174 20.3031 7.85596 19.6341 7.85596H12.0784C9.40541 7.85596 6.84194 8.9178 4.95188 10.8079C3.06182 12.6979 2 15.2614 2 17.9343C2 20.6073 3.06182 23.1707 4.95188 25.0608C6.84194 26.9508 9.40541 28.0127 12.0784 28.0127H19.6341C20.3013 28.0127 20.9413 27.7484 21.4141 27.2776C21.8869 26.8068 22.1539 26.1679 22.1567 25.5007Z" fill="#9E76B4"/>
<path d="M67.4784 7.87158C66.8097 7.87158 66.1685 8.13718 65.6957 8.60999C65.2229 9.08279 64.9572 9.72406 64.9572 10.3927V17.9499C64.9572 19.2851 64.4274 20.5656 63.484 21.5105C62.5406 22.4553 61.2609 22.9871 59.9257 22.9891C58.5892 22.9891 57.3075 22.4582 56.3625 21.5132C55.4174 20.5681 54.8865 19.2864 54.8865 17.9499V10.3927C54.8865 10.0615 54.8213 9.73353 54.6945 9.42755C54.5677 9.12158 54.3818 8.84357 54.1476 8.60944C53.9133 8.37532 53.6352 8.18965 53.3291 8.06304C53.0231 7.93643 52.6951 7.87138 52.3639 7.87158C51.6952 7.87158 51.054 8.13718 50.5812 8.60999C50.1084 9.08279 49.8428 9.72406 49.8428 10.3927V17.9499C49.8428 20.6229 50.9046 23.1863 52.7947 25.0764C54.6847 26.9664 57.2482 28.0283 59.9211 28.0283C62.5941 28.0283 65.1575 26.9664 67.0476 25.0764C68.9377 23.1863 69.9995 20.6229 69.9995 17.9499V10.3927C69.9991 9.72418 69.7333 9.08315 69.2606 8.61043C68.7879 8.13772 68.1469 7.87199 67.4784 7.87158Z" fill="#9E76B4"/>
<path d="M42.2711 25.5012C42.3029 26.148 42.5823 26.7577 43.0513 27.2042C43.5203 27.6507 44.1431 27.8998 44.7907 27.8998C45.4382 27.8998 46.061 27.6507 46.53 27.2042C46.999 26.7577 47.2784 26.148 47.3103 25.5012V10.4524C47.3157 9.781 47.0572 9.13435 46.5905 8.65168C46.1238 8.169 45.4863 7.88892 44.8151 7.87172C44.288 7.86613 43.7725 8.02639 43.3415 8.32983L38.3359 11.842C38.8839 11.4729 39.5547 11.3335 40.2042 11.4537C40.8538 11.5739 41.4304 11.9442 41.8099 12.4849C42.108 12.9087 42.268 13.4143 42.268 13.9325L42.2711 25.5012Z" fill="#FAAC1E"/>
<path d="M36.0032 13.4761L28.6476 8.32547C28.2169 8.02138 27.7012 7.86105 27.174 7.86737C26.503 7.88417 25.8654 8.16392 25.3987 8.64635C24.9319 9.12878 24.6734 9.77528 24.6788 10.4465V25.4968C24.662 25.8382 24.7147 26.1793 24.8338 26.4997C24.9528 26.82 25.1357 27.1128 25.3713 27.3603C25.6069 27.6078 25.8904 27.8048 26.2045 27.9395C26.5185 28.0741 26.8567 28.1436 27.1984 28.1436C27.5402 28.1436 27.8783 28.0741 28.1924 27.9395C28.5065 27.8048 28.7899 27.6078 29.0256 27.3603C29.2612 27.1128 29.4441 26.82 29.5631 26.4997C29.6821 26.1793 29.7348 25.8382 29.718 25.4968V15.2337L34.548 18.6146C34.973 18.9127 35.4795 19.0727 35.9987 19.0727C36.5178 19.0727 37.0244 18.9127 37.4493 18.6146L41.8777 15.5132V13.919C41.8777 13.5075 41.7715 13.1029 41.5694 12.7445C41.3673 12.3861 41.0761 12.0858 40.724 11.8729C40.372 11.6599 39.9709 11.5414 39.5596 11.5288C39.1483 11.5162 38.7407 11.6099 38.3762 11.801L36.0032 13.4761Z" fill="#9E76B4"/>
</svg>
