<svg width="104" height="36" viewBox="0 0 104 36" fill="none" xmlns="http://www.w3.org/2000/svg">
<path d="M81.6929 17.9309C81.7023 17.5686 81.7706 17.2102 81.895 16.8697C82.0472 16.4443 82.286 16.055 82.5962 15.7264C82.978 15.3354 83.4359 15.0269 83.9416 14.82C85.3244 14.3146 86.8415 14.3146 88.2243 14.82C88.7275 15.0323 89.1821 15.345 89.5603 15.7391C89.8711 16.0654 90.1071 16.4556 90.2519 16.8824C90.3716 17.2239 90.4376 17.5818 90.4477 17.9436V24.6108C90.4495 24.7252 90.4282 24.8387 90.3851 24.9447C90.342 25.0507 90.278 25.1469 90.197 25.2276C90.1159 25.3084 90.0195 25.372 89.9134 25.4147C89.8072 25.4574 89.6936 25.4783 89.5792 25.4761C89.4643 25.4791 89.35 25.4589 89.2431 25.4166C89.1362 25.3743 89.039 25.3108 88.9573 25.2299C88.8756 25.1491 88.8111 25.0526 88.7676 24.9462C88.7241 24.8398 88.7026 24.7257 88.7044 24.6108V17.9309C88.6949 17.7936 88.6738 17.6573 88.6412 17.5235C88.5851 17.3022 88.4768 17.0975 88.3254 16.9266C88.1048 16.6941 87.835 16.5138 87.5358 16.3991C87.0702 16.2277 86.5755 16.1494 86.0798 16.1686C85.5588 16.1446 85.0389 16.2363 84.5575 16.437C84.2517 16.5725 83.9807 16.7755 83.7648 17.0308C83.6207 17.2035 83.52 17.4082 83.471 17.6277C83.4394 17.8141 83.4237 17.9183 83.4237 17.9436V22.52L84.9144 21.0261C84.7462 20.963 84.5995 20.8535 84.4912 20.7102C84.379 20.5648 84.32 20.3854 84.3238 20.2018C84.3221 20.0874 84.3434 19.9738 84.3865 19.8678C84.4295 19.7619 84.4935 19.6656 84.5745 19.5849C84.6556 19.5042 84.752 19.4405 84.8582 19.3978C84.9643 19.3552 85.0779 19.3342 85.1923 19.3364H86.942C87.1163 19.3364 87.2866 19.388 87.4316 19.4848C87.5787 19.5763 87.6927 19.7124 87.7569 19.8733C87.8166 20.0358 87.8319 20.2114 87.8011 20.3818C87.7703 20.5462 87.6898 20.6972 87.5705 20.8145L83.1678 25.2424C83.0894 25.3251 82.9949 25.3907 82.89 25.4353C82.7851 25.4799 82.6722 25.5024 82.5583 25.5014C82.3259 25.4964 82.1049 25.4002 81.943 25.2335C81.781 25.0669 81.6912 24.8432 81.6929 24.6108V17.9309Z" fill="#FFDB9C"/>
<path d="M82.9593 10.4647H88.1768V9.54562C88.175 9.43411 88.1959 9.3234 88.2382 9.22023C88.2806 9.11706 88.3435 9.0236 88.4232 8.94554C88.5052 8.86212 88.6038 8.79681 88.7126 8.75384C88.8213 8.71086 88.9379 8.69117 89.0548 8.69604C89.1691 8.69281 89.2829 8.71331 89.3889 8.75625C89.4949 8.7992 89.5909 8.86365 89.6707 8.94554C89.7514 9.02298 89.8152 9.11626 89.8581 9.21952C89.9011 9.32278 89.9222 9.43381 89.9202 9.54562V11.3459C89.9221 11.4572 89.901 11.5677 89.858 11.6705C89.8151 11.7732 89.7513 11.8659 89.6707 11.9428C89.5909 12.0247 89.4949 12.0891 89.3889 12.1321C89.2829 12.175 89.1691 12.1955 89.0548 12.1923H82.9593C82.845 12.1953 82.7313 12.1747 82.6253 12.1318C82.5193 12.0889 82.4234 12.0245 82.3434 11.9428C82.2628 11.8659 82.199 11.7732 82.1561 11.6705C82.1131 11.5677 82.092 11.4572 82.0939 11.3459C82.0918 11.2315 82.1127 11.1179 82.1554 11.0117C82.1981 10.9056 82.2617 10.8091 82.3424 10.7281C82.4232 10.6471 82.5194 10.5831 82.6254 10.54C82.7313 10.4969 82.8449 10.4756 82.9593 10.4773V10.4647Z" fill="#FFDB9C"/>
<path d="M93.7007 17.9309C93.7101 17.5685 93.7784 17.2101 93.9028 16.8697C94.055 16.4442 94.2938 16.0549 94.604 15.7264C94.9858 15.3354 95.4437 15.0269 95.9494 14.82C97.3333 14.3146 98.8513 14.3146 100.235 14.82C100.738 15.0322 101.193 15.345 101.571 15.739C101.881 16.0655 102.116 16.4557 102.26 16.8823C102.379 17.2238 102.445 17.5818 102.456 17.9435V24.6107C102.458 24.7837 102.409 24.9534 102.314 25.0983C102.22 25.2433 102.084 25.3568 101.925 25.4245C101.766 25.4923 101.59 25.5111 101.42 25.4787C101.251 25.4462 101.094 25.364 100.971 25.2424C100.887 25.1608 100.822 25.0622 100.779 24.9533C100.736 24.8445 100.716 24.7277 100.722 24.6107V17.9309C100.712 17.7935 100.691 17.6572 100.658 17.5235C100.602 17.3021 100.494 17.0975 100.343 16.9265C100.123 16.6895 99.8516 16.5059 99.5499 16.3896C99.0843 16.2182 98.5897 16.1399 98.0939 16.1591C97.5729 16.1354 97.0531 16.2271 96.5716 16.4275C96.2633 16.5659 95.9901 16.7721 95.7726 17.0308C95.6285 17.2035 95.5278 17.4082 95.4788 17.6277C95.4473 17.814 95.4346 17.9183 95.4346 17.9435V22.5199L96.9159 21.026C96.7477 20.963 96.6009 20.8535 96.4927 20.7102C96.3805 20.5648 96.3215 20.3853 96.3253 20.2017C96.3236 20.0873 96.3449 19.9738 96.3879 19.8678C96.431 19.7618 96.495 19.6656 96.576 19.5849C96.6571 19.5041 96.7535 19.4405 96.8597 19.3978C96.9658 19.3551 97.0794 19.3342 97.1938 19.3363H98.9435C99.1178 19.3363 99.2881 19.388 99.4331 19.4848C99.5802 19.5762 99.6942 19.7124 99.7584 19.8733C99.8181 20.0358 99.8334 20.2113 99.8026 20.3817C99.773 20.5466 99.6923 20.6979 99.572 20.8144L95.1756 25.2424C95.0972 25.3251 95.0027 25.3907 94.8978 25.4353C94.7929 25.4798 94.68 25.5023 94.5661 25.5014C94.3337 25.4964 94.1127 25.4002 93.9508 25.2335C93.7888 25.0668 93.699 24.8431 93.7007 24.6107V17.9309Z" fill="#FFDB9C"/>
<path d="M94.9672 10.4647H100.185V9.54562C100.183 9.43381 100.204 9.32278 100.247 9.21952C100.29 9.11626 100.354 9.02298 100.434 8.94554C100.514 8.86365 100.61 8.7992 100.716 8.75625C100.822 8.71331 100.936 8.69281 101.05 8.69604C101.167 8.69117 101.284 8.71086 101.392 8.75384C101.501 8.79681 101.6 8.86212 101.682 8.94554C101.761 9.0236 101.824 9.11706 101.867 9.22023C101.909 9.3234 101.93 9.43411 101.928 9.54562V11.3459C101.93 11.4569 101.909 11.5672 101.867 11.6699C101.824 11.7726 101.761 11.8654 101.682 11.9428C101.6 12.0262 101.501 12.0915 101.392 12.1345C101.284 12.1775 101.167 12.1972 101.05 12.1923H94.9672C94.8529 12.195 94.7393 12.1742 94.6334 12.1313C94.5275 12.0884 94.4315 12.0242 94.3513 11.9428C94.2707 11.8659 94.2069 11.7732 94.164 11.6705C94.121 11.5677 94.0999 11.4572 94.1018 11.3459C94.0969 11.229 94.1166 11.1124 94.1596 11.0036C94.2026 10.8948 94.2679 10.7962 94.3513 10.7142C94.4319 10.6334 94.528 10.5696 94.6338 10.5267C94.7397 10.4839 94.853 10.4628 94.9672 10.4647Z" fill="#FFDB9C"/>
<path d="M37.1703 13.4306C36.9662 13.4309 36.7654 13.4822 36.5861 13.5799C36.4069 13.6775 36.2549 13.8183 36.1439 13.9896L32.755 19.0429L29.464 13.9896C29.3415 13.8098 29.1722 13.6667 28.9745 13.5759C28.788 13.4823 28.583 13.4316 28.3744 13.4275C28.2047 13.4244 28.0362 13.4555 27.8788 13.519C27.7215 13.5825 27.5785 13.677 27.4585 13.797C27.3367 13.9123 27.2399 14.0514 27.1741 14.2057C27.1084 14.36 27.0751 14.5262 27.0763 14.6939V24.0583C27.0624 24.3849 27.1756 24.7041 27.3922 24.949C27.5011 25.0708 27.6351 25.1675 27.7851 25.2324C27.9351 25.2973 28.0974 25.3289 28.2607 25.3248C28.4271 25.3304 28.5926 25.2996 28.7459 25.2347C28.8991 25.1698 29.0364 25.0723 29.1482 24.949C29.3647 24.7041 29.4779 24.3849 29.464 24.0583V18.3734L31.6464 21.7686L31.6654 21.797C31.7885 21.9462 31.9372 22.0724 32.1044 22.1697C32.2756 22.2759 32.4747 22.3287 32.676 22.3213C32.8825 22.3294 33.0867 22.2766 33.2635 22.1697C33.4291 22.0714 33.5765 21.9453 33.6993 21.797L35.8691 18.4934V24.0583C35.8656 24.2254 35.8962 24.3915 35.9592 24.5463C36.0222 24.7011 36.1162 24.8413 36.2355 24.9585C36.3594 25.0818 36.5077 25.178 36.6708 25.2411C36.8338 25.3041 37.0083 25.3327 37.183 25.3248C37.3514 25.3309 37.5192 25.3025 37.6763 25.2414C37.8334 25.1803 37.9763 25.0878 38.0963 24.9695C38.2164 24.8512 38.311 24.7097 38.3745 24.5536C38.4379 24.3974 38.4688 24.23 38.4652 24.0615V14.6971C38.4695 14.5235 38.4358 14.351 38.3665 14.1917C38.2972 14.0324 38.194 13.8902 38.0641 13.7749C37.821 13.5504 37.5012 13.4272 37.1703 13.4306Z" fill="#FFB717"/>
<path d="M47.2481 17.3057C46.8521 16.8921 46.3817 16.5567 45.8616 16.3171C45.3323 16.0721 44.7553 15.947 44.1719 15.9508C43.4125 15.9519 42.667 16.1546 42.0117 16.5382C41.3298 16.9449 40.7676 17.5245 40.382 18.2184C39.9444 19.0214 39.7265 19.9257 39.7503 20.8398C39.7376 21.6644 39.9354 22.4786 40.3251 23.2054C40.7108 23.9064 41.2852 24.4852 41.9832 24.8762C42.6231 25.2092 43.3239 25.4089 44.0432 25.4632C44.7625 25.5175 45.4854 25.4252 46.168 25.192C46.6257 25.046 47.0535 24.8192 47.4313 24.5224C47.5987 24.4109 47.7371 24.261 47.8349 24.0852C47.9326 23.9094 47.987 23.7128 47.9935 23.5118C47.9936 23.3704 47.9657 23.2303 47.9115 23.0997C47.8573 22.9691 47.7778 22.8504 47.6777 22.7506C47.3208 22.3843 46.7933 22.3053 46.1996 22.6022C46.0764 22.6685 45.9406 22.7506 45.789 22.8454C45.6332 22.9356 45.4651 23.0026 45.29 23.0443C45.0024 23.1119 44.7072 23.1416 44.412 23.1328C44.0318 23.1332 43.6578 23.0365 43.3255 22.8517C42.9804 22.6582 42.6936 22.3758 42.4949 22.0337C42.4234 21.9147 42.3641 21.7888 42.318 21.6578H47.2892C47.6041 21.6584 47.9087 21.5464 48.1483 21.342C48.2722 21.2398 48.3726 21.1122 48.4429 20.9678C48.5132 20.8234 48.5517 20.6656 48.5557 20.5051C48.558 19.9008 48.4377 19.3023 48.202 18.7459C47.9735 18.2122 47.6504 17.7243 47.2481 17.3057ZM42.7507 18.7743C42.9208 18.6041 43.1301 18.4783 43.3603 18.4079C43.8989 18.2284 44.485 18.2543 45.0057 18.4806C45.258 18.602 45.4802 18.7778 45.6563 18.9954C45.7745 19.1398 45.8577 19.3095 45.8995 19.4912H42.3338C42.4161 19.2235 42.5588 18.9783 42.7507 18.7743Z" fill="#FFB717"/>
<path d="M56.5907 16.5159C56.0094 16.1051 55.305 15.9056 54.5947 15.9506C54.2161 15.9479 53.8399 16.0109 53.4829 16.1369C53.157 16.2532 52.8495 16.4159 52.5702 16.6201C52.4192 16.7329 52.2747 16.8541 52.1375 16.9833C52.0703 16.7786 51.9518 16.5944 51.7934 16.4484C51.6349 16.3023 51.4417 16.1992 51.2322 16.1489C51.0227 16.0986 50.8037 16.1027 50.5962 16.1608C50.3887 16.219 50.1995 16.3293 50.0467 16.4812C49.9299 16.5996 49.8381 16.7404 49.7768 16.895C49.7155 17.0496 49.6859 17.215 49.6898 17.3813V24.058C49.686 24.2238 49.7156 24.3887 49.777 24.5428C49.8383 24.6969 49.93 24.837 50.0467 24.9549C50.1641 25.0729 50.3036 25.1664 50.4572 25.2303C50.6109 25.2942 50.7757 25.327 50.9421 25.327C51.1085 25.327 51.2732 25.2942 51.4269 25.2303C51.5805 25.1664 51.7201 25.0729 51.8374 24.9549C51.9541 24.837 52.0458 24.6969 52.1072 24.5428C52.1685 24.3887 52.1981 24.2238 52.1943 24.058V19.9174C52.1897 19.6292 52.2581 19.3445 52.3933 19.0899C52.5272 18.8474 52.7263 18.6472 52.9681 18.512C53.259 18.3562 53.5858 18.28 53.9156 18.2909C54.2142 18.27 54.512 18.3417 54.7684 18.4962C54.9557 18.63 55.0934 18.8222 55.16 19.0426C55.2469 19.3259 55.2895 19.621 55.2863 19.9174V24.058C55.2819 24.2236 55.311 24.3884 55.3718 24.5425C55.4326 24.6966 55.5238 24.8369 55.6401 24.9549C55.7574 25.0729 55.897 25.1664 56.0506 25.2303C56.2043 25.2942 56.369 25.327 56.5354 25.327C56.7018 25.327 56.8666 25.2942 57.0203 25.2303C57.1739 25.1664 57.3134 25.0729 57.4308 24.9549C57.5475 24.837 57.6392 24.6969 57.7005 24.5428C57.7619 24.3887 57.7915 24.2238 57.7877 24.058V19.9174C57.7947 19.2669 57.7118 18.6186 57.5414 17.9908C57.388 17.4112 57.0552 16.895 56.5907 16.5159Z" fill="#FFB717"/>
<path d="M63.5357 18.6102C63.6912 18.6168 63.8464 18.5923 63.9923 18.538C64.1382 18.4838 64.2718 18.401 64.3852 18.2944C64.4971 18.1888 64.5856 18.0608 64.6449 17.9188C64.7042 17.7768 64.733 17.6239 64.7295 17.4701C64.7321 17.3138 64.7032 17.1587 64.6446 17.0138C64.586 16.869 64.4988 16.7374 64.3883 16.6269C64.2778 16.5164 64.1462 16.4293 64.0014 16.3707C63.8565 16.312 63.7014 16.2832 63.5451 16.2857H62.6766V15.5214C62.6853 15.1892 62.5627 14.8669 62.3355 14.6244C62.221 14.5033 62.0822 14.4077 61.9281 14.344C61.7741 14.2803 61.6083 14.25 61.4417 14.2549C61.2752 14.2528 61.11 14.284 60.9557 14.3468C60.8015 14.4095 60.6614 14.5025 60.5437 14.6202C60.4259 14.7379 60.3329 14.8781 60.2702 15.0323C60.2075 15.1865 60.1762 15.3518 60.1784 15.5182V16.2731H59.7173C59.5628 16.2675 59.4088 16.2926 59.2641 16.3468C59.1193 16.401 58.9868 16.4833 58.874 16.5889C58.7627 16.695 58.6747 16.8231 58.6154 16.965C58.5562 17.1069 58.527 17.2595 58.5297 17.4132C58.5255 17.5697 58.5528 17.7255 58.6101 17.8711C58.6673 18.0168 58.7533 18.1495 58.863 18.2612C58.9726 18.3729 59.1037 18.4614 59.2483 18.5214C59.3929 18.5813 59.5481 18.6116 59.7046 18.6102H60.1657V22.795C60.1437 23.2709 60.2392 23.7449 60.4437 24.1752C60.604 24.494 60.8487 24.7627 61.1511 24.9521C61.4211 25.117 61.7221 25.2246 62.0355 25.268C62.2969 25.3067 62.5607 25.3268 62.825 25.328C63.2479 25.3296 63.6631 25.2149 64.0252 24.9964C64.1785 24.9187 64.3125 24.8078 64.4174 24.6716C64.5223 24.5355 64.5955 24.3777 64.6315 24.2096C64.6675 24.0416 64.6655 23.8676 64.6257 23.7005C64.5858 23.5333 64.509 23.3772 64.401 23.2435C64.3262 23.1468 64.2305 23.0683 64.1212 23.0136C64.0119 22.9589 63.8916 22.9295 63.7694 22.9277C63.6014 22.9252 63.4347 22.9574 63.2798 23.0224C63.2068 23.053 63.1284 23.0687 63.0493 23.0687C62.9701 23.0687 62.8917 23.053 62.8187 23.0224C62.7713 23.0028 62.7315 22.9684 62.705 22.9245C62.6692 22.8554 62.6528 22.7779 62.6576 22.7003V18.6102H63.5357Z" fill="#FFB717"/>
<path d="M73.2981 15.9506C73.1316 15.9462 72.966 15.9769 72.812 16.0405C72.6581 16.1042 72.5192 16.1994 72.4044 16.3201C72.2903 16.4344 72.2011 16.5709 72.1422 16.7212C71.8218 16.4924 71.471 16.3096 71.1 16.178C70.6587 16.0229 70.1938 15.9459 69.7261 15.9506C68.972 15.9484 68.2339 16.1681 67.6037 16.5823C66.96 17.0045 66.4384 17.5882 66.0909 18.2751C65.725 19.0426 65.5352 19.8821 65.5352 20.7323C65.5352 21.5825 65.725 22.422 66.0909 23.1895C66.4413 23.8785 66.9689 24.4617 67.6195 24.8792C68.2676 25.2951 69.0223 25.5144 69.7924 25.5108C70.2162 25.5134 70.6368 25.4385 71.0336 25.2897C71.3831 25.1593 71.7126 24.9807 72.0127 24.7591C72.0664 24.7212 72.1169 24.6802 72.1675 24.6391C72.2249 24.7663 72.3052 24.8819 72.4044 24.9802C72.5217 25.0982 72.6613 25.1917 72.8149 25.2556C72.9686 25.3195 73.1333 25.3523 73.2997 25.3523C73.4661 25.3523 73.6309 25.3195 73.7845 25.2556C73.9382 25.1917 74.0777 25.0982 74.1951 24.9802C74.3118 24.8623 74.4035 24.7222 74.4648 24.5681C74.5261 24.414 74.5558 24.2491 74.552 24.0833V17.2202C74.5577 17.0528 74.529 16.886 74.4675 16.7301C74.406 16.5742 74.3132 16.4327 74.1947 16.3142C74.0763 16.1957 73.9347 16.1029 73.7788 16.0414C73.623 15.98 73.4561 15.9512 73.2887 15.9569L73.2981 15.9506ZM71.858 19.4595C72.0434 19.8545 72.1363 20.2865 72.1296 20.7228C72.138 21.1593 72.045 21.5917 71.858 21.9861C71.6974 22.3354 71.4425 22.6329 71.1221 22.8452C70.8005 23.0587 70.4215 23.1689 70.0356 23.161C69.6538 23.1681 69.279 23.0579 68.9618 22.8452C68.6429 22.6312 68.3884 22.3341 68.2259 21.9861C68.0388 21.5917 67.9458 21.1593 67.9543 20.7228C67.9475 20.2865 68.0404 19.8545 68.2259 19.4595C68.3906 19.1155 68.6448 18.8221 68.9618 18.6099C69.2792 18.3976 69.6538 18.2874 70.0356 18.2941C70.4213 18.2877 70.7999 18.3977 71.1221 18.6099C71.4391 18.8221 71.6932 19.1155 71.858 19.4595Z" fill="#FFB717"/>
<path d="M78.4113 13.1714C78.297 13.0498 78.1583 12.9538 78.0043 12.8896C77.8502 12.8253 77.6844 12.7944 77.5175 12.7987C77.1825 12.7987 76.8612 12.9318 76.6242 13.1688C76.3873 13.4057 76.2542 13.727 76.2542 14.0621V24.0581C76.2505 24.2237 76.2799 24.3883 76.3407 24.5423C76.4014 24.6963 76.4923 24.8366 76.608 24.9551C76.7209 25.0748 76.8576 25.1696 77.0094 25.2332C77.1612 25.2969 77.3246 25.328 77.4891 25.3246C77.6556 25.3267 77.8208 25.2955 77.9751 25.2328C78.1293 25.17 78.2694 25.0771 78.3872 24.9593C78.5049 24.8416 78.5979 24.7015 78.6606 24.5473C78.7233 24.393 78.7546 24.2278 78.7524 24.0613V14.0652C78.7603 13.7341 78.6378 13.4131 78.4113 13.1714Z" fill="#FFB717"/>
<path d="M12.8417 23.3477C12.9112 22.5013 11.9637 21.5064 11.0857 21.5411C10.9436 20.4863 10.3498 19.883 9.26334 19.7441C9.30756 19.1566 8.98225 18.7366 8.56535 18.3607C8.30003 18.1058 7.94634 17.9634 7.57838 17.9634C7.21041 17.9634 6.85672 18.1058 6.5914 18.3607C6.0587 18.8724 5.53758 19.3988 5.02804 19.9399C4.87533 20.1283 4.74002 20.3302 4.62377 20.5431C4.59535 20.5147 4.54481 20.4705 4.49744 20.4199C3.87993 19.8321 3.29377 19.2123 2.74142 18.5628C0.072638 15.1234 2.10975 10.0007 6.43033 9.34057C7.23664 9.2061 8.0626 9.2495 8.85039 9.46772C9.63817 9.68595 10.3687 10.0737 10.9909 10.6039L11.0857 10.6892C11.0961 10.705 11.1046 10.7219 11.111 10.7397C11.0667 10.7839 11.0225 10.8376 10.9751 10.885L7.18517 14.7065C6.5535 15.3382 6.62299 16.0362 7.33045 16.5573C7.75087 16.8732 8.27272 17.0236 8.79678 16.98C9.32085 16.9363 9.8106 16.7016 10.1729 16.3204C11.0636 15.4393 11.9447 14.5455 12.8291 13.658C13.1449 13.3422 13.2807 13.3422 13.5871 13.658L18.9562 19.065C19.3826 19.4914 19.3763 19.8704 18.9562 20.3062C18.7162 20.5526 18.4604 20.7452 18.1035 20.6221C17.9454 20.5635 17.8028 20.4695 17.6866 20.3473C16.3938 19.0461 15.1073 17.7491 13.8271 16.4563C13.7829 16.412 13.7387 16.3647 13.6913 16.3236C13.6239 16.2599 13.5346 16.2243 13.4418 16.2243C13.349 16.2243 13.2597 16.2599 13.1923 16.3236C13.1574 16.3561 13.1295 16.3955 13.1105 16.4392C13.0915 16.4829 13.0816 16.5301 13.0816 16.5778C13.0816 16.6256 13.0915 16.6727 13.1105 16.7165C13.1295 16.7602 13.1574 16.7996 13.1923 16.8321C13.5081 17.1479 13.8239 17.4859 14.1587 17.8112L17.1402 20.821C17.5981 21.279 17.6013 21.6454 17.1402 22.0844C17.0165 22.2208 16.8645 22.3286 16.6949 22.4002C16.5585 22.4406 16.4132 22.4393 16.2776 22.3965C16.142 22.3537 16.0222 22.2714 15.9337 22.1602C14.6914 20.9095 13.4481 19.6609 12.2037 18.4144L11.9953 18.2028C11.7837 17.9944 11.5689 17.9691 11.4078 18.1365C11.2468 18.3039 11.2783 18.506 11.4805 18.7113C12.788 20.0252 14.0945 21.3401 15.3999 22.656C15.5299 22.7821 15.6246 22.94 15.6747 23.114C15.7789 23.5309 15.4979 23.8499 15.0431 24.1436C14.7525 24.3363 14.4114 24.2383 14.1145 23.932C13.685 23.4835 13.5365 23.4172 12.8417 23.3477Z" fill="#FFE7B2"/>
<path d="M21.6758 14.1475C21.3063 11.902 20.024 10.3291 17.8858 9.58375C16.8956 9.20323 15.8158 9.12008 14.779 9.3445C13.7422 9.56892 12.7935 10.0911 12.0492 10.8471C10.5396 12.2715 9.10252 13.7812 7.62758 15.2529C7.57768 15.291 7.53801 15.3409 7.51216 15.3981C7.4863 15.4553 7.47506 15.5181 7.47944 15.5807C7.48382 15.6433 7.5037 15.7039 7.53727 15.7569C7.57085 15.81 7.61707 15.8538 7.6718 15.8846C7.95644 16.1169 8.31795 16.2338 8.68471 16.2122C9.05147 16.1905 9.39672 16.0319 9.65207 15.7677C10.5364 14.8897 11.4144 14.0022 12.2956 13.1179C12.8799 12.5305 13.4957 12.5305 14.08 13.1179C15.8697 14.9139 17.6595 16.7131 19.4492 18.5155C19.6426 18.7458 19.8209 18.9884 19.9829 19.2419L20.0998 19.125C20.7463 18.4853 21.2277 17.698 21.5022 16.8308C21.7768 15.9637 21.8363 15.0428 21.6758 14.1475Z" fill="#FFC74A"/>
<path d="M9.91713 22.1791C10.4698 21.6738 10.4919 21.2316 9.88871 20.6947C9.82106 20.6226 9.73936 20.5651 9.64864 20.5259C9.55793 20.4866 9.46012 20.4663 9.36127 20.4663C9.26241 20.4663 9.1646 20.4866 9.07389 20.5259C8.98317 20.5651 8.90147 20.6226 8.83383 20.6947C8.33166 21.1905 7.82948 21.6864 7.34626 22.198C7.23245 22.3516 7.13705 22.5181 7.06201 22.6939C7.11415 22.9883 7.27543 23.2522 7.51365 23.4329C7.58193 23.5197 7.66899 23.5898 7.76828 23.638C7.86758 23.6862 7.97651 23.7112 8.08689 23.7112C8.19726 23.7112 8.30619 23.6862 8.40549 23.638C8.50478 23.5898 8.59184 23.5197 8.66012 23.4329C9.08018 23.0318 9.48128 22.5802 9.91713 22.1791Z" fill="#FFC74A"/>
<path d="M12.3299 24.3582L10.9718 25.7226C10.6876 26.0068 10.5865 26.31 10.7508 26.5911C10.8355 26.7897 10.9731 26.9612 11.1485 27.087C11.3239 27.2128 11.5304 27.2882 11.7456 27.3049C11.8967 27.2489 12.0384 27.1701 12.1657 27.0712C12.6868 26.5753 13.1858 26.0605 13.6911 25.5489C13.7686 25.4715 13.8276 25.3777 13.8637 25.2743C13.8998 25.1709 13.9121 25.0607 13.8996 24.952C13.8536 24.7204 13.7244 24.5137 13.5364 24.3708C13.1227 23.9413 12.75 23.9381 12.3299 24.3582Z" fill="#FFC74A"/>
<path d="M8.32182 20.1892C8.43274 20.0631 8.50702 19.9091 8.53658 19.7439C8.60291 19.3933 8.36604 19.1722 8.1418 18.9543C8.07405 18.8694 7.98805 18.8008 7.89018 18.7537C7.79231 18.7066 7.68508 18.6821 7.57646 18.6821C7.46784 18.6821 7.36061 18.7066 7.26274 18.7537C7.16487 18.8008 7.07887 18.8694 7.01112 18.9543C6.54685 19.4186 6.08889 19.9018 5.62146 20.3471C5.48758 20.4429 5.39109 20.5821 5.34846 20.7411C5.30584 20.9001 5.31972 21.0689 5.38774 21.2188C5.47238 21.4164 5.60787 21.588 5.78041 21.7161C5.95296 21.8443 6.15639 21.9244 6.36998 21.9484C6.53018 21.8882 6.68033 21.8041 6.8153 21.6989C7.33011 21.1967 7.83228 20.6914 8.32182 20.1892Z" fill="#FFC74A"/>
<path d="M11.9004 23.7549C12.0074 23.6047 12.0964 23.4425 12.1657 23.2717C12.112 22.958 11.9359 22.6786 11.6762 22.4947C11.6085 22.4221 11.5266 22.3642 11.4356 22.3247C11.3446 22.2851 11.2464 22.2646 11.1472 22.2646C11.0479 22.2646 10.9497 22.2851 10.8587 22.3247C10.7677 22.3642 10.6858 22.4221 10.6181 22.4947C10.1128 22.9937 9.61169 23.497 9.11478 24.0044C9.0463 24.0712 8.99189 24.151 8.95473 24.2391C8.91758 24.3273 8.89844 24.422 8.89844 24.5176C8.89844 24.6133 8.91758 24.708 8.95473 24.7961C8.99189 24.8842 9.0463 24.9641 9.11478 25.0308C9.20005 25.1224 9.28848 25.214 9.38323 25.2993C9.51853 25.427 9.69852 25.4966 9.88454 25.493C10.0706 25.4895 10.2478 25.4131 10.3781 25.2803C10.8929 24.7782 11.4046 24.2728 11.9004 23.7549Z" fill="#FFC74A"/>
</svg>
